<?xml version="1.0" encoding="UTF-8"?>
<svg version="1.1" xmlns="http://www.w3.org/2000/svg" width="1024" height="1024">
<path d="M0 0 C0.95751409 -0.00205263 1.91502819 -0.00410527 2.90155786 -0.0062201 C6.11677824 -0.01188395 9.33195569 -0.0104336 12.54718018 -0.00901413 C14.87304388 -0.01159812 17.19890714 -0.01461137 19.52476978 -0.01801753 C25.25099788 -0.0252406 30.97721481 -0.02778997 36.70344713 -0.02834659 C43.56341858 -0.02926144 50.42338144 -0.03593261 57.28334919 -0.04269341 C73.86300999 -0.05874359 90.44266986 -0.06465565 107.02233703 -0.06944216 C114.86809686 -0.07177917 122.71385597 -0.07538195 130.55961523 -0.07913754 C157.42475748 -0.0919724 184.28989931 -0.10269146 211.15504456 -0.10614014 C212.84108605 -0.10636177 214.52712754 -0.10658355 216.21316904 -0.10680549 C217.90324684 -0.10702613 219.59332464 -0.10724661 221.28340244 -0.10746694 C224.67389997 -0.10790948 228.06439749 -0.1083566 231.45489502 -0.10880661 C232.29553955 -0.108916 233.13618408 -0.10902539 234.00230269 -0.1091381 C261.25420925 -0.11276794 288.50608919 -0.12868555 315.75798556 -0.15199697 C344.58082375 -0.17660704 373.40364674 -0.19031353 402.22649574 -0.19150805 C405.39210638 -0.1916795 408.55771701 -0.19189493 411.72332764 -0.19214249 C412.50277081 -0.19219826 413.28221398 -0.19225402 414.08527665 -0.19231148 C426.6151625 -0.19346092 439.14502099 -0.20447386 451.6748976 -0.21902954 C464.27552616 -0.233414 476.87611973 -0.23662054 489.47675425 -0.22858956 C496.29979482 -0.22453297 503.12273808 -0.22560726 509.94576836 -0.23964691 C516.19705624 -0.25239231 522.44818331 -0.25118247 528.699471 -0.2390562 C530.95590825 -0.23710033 533.21235692 -0.24017248 535.46877813 -0.24890056 C547.49196727 -0.29244739 558.67769352 0.08870211 570.35675049 3.13142776 C571.10481555 3.31811988 571.85288061 3.50481199 572.62361431 3.69716144 C588.69241881 8.00630896 602.68558989 16.57504017 615.35675049 27.13142776 C616.37639893 27.94869339 617.39604736 28.76595901 618.44659424 29.60799026 C623.05771726 33.60636002 626.6164592 38.33064642 630.35675049 43.13142776 C631.0644458 44.02345901 631.77214111 44.91549026 632.50128174 45.83455276 C644.37083855 61.35802669 649.50744238 79.55368768 649.50392151 98.91287613 C649.5075982 100.00040009 649.51127488 101.08792405 649.51506299 102.20840329 C649.52607866 105.8537294 649.52994014 109.49902697 649.53375244 113.14436722 C649.54001883 115.75803085 649.54666579 118.3716936 649.55366516 120.98535538 C649.57339254 128.8302397 649.58349228 136.67512523 649.59239295 144.52002814 C649.59678306 148.221191 649.60214809 151.92235244 649.60738182 155.62351418 C649.62439243 167.9396704 649.63888343 180.25582576 649.64613056 192.57199192 C649.64804023 195.76538786 649.64996059 198.9587838 649.6519165 202.15217972 C649.65240024 202.94581219 649.65288398 203.73944466 649.65338238 204.5571266 C649.66167086 217.39429339 649.68698847 230.23136663 649.71949718 243.06849263 C649.75265566 256.2707014 649.77058734 269.47286278 649.7737748 282.67511338 C649.77593208 290.07843497 649.784565 297.48162026 649.81023598 304.88490105 C649.83206368 311.19414187 649.83993478 317.50321328 649.8302692 323.81248758 C649.82575867 327.0248335 649.82965142 330.2367619 649.84703064 333.44907379 C649.97892161 359.28891301 645.6928689 383.29738097 628.29425049 403.52986526 C627.20128619 404.60869641 626.08461277 405.66517597 624.92706299 406.67439651 C623.2178447 408.17448922 623.2178447 408.17448922 621.61456299 410.44392776 C607.92528452 426.73843224 583.02812479 437.46832006 562.35675049 440.13142776 C557.14522844 440.39184055 551.94442391 440.3622476 546.72880554 440.32242203 C545.16471848 440.31810887 543.60062864 440.31472387 542.03653771 440.31217974 C538.65266897 440.30475396 535.26890716 440.2909818 531.88508224 440.27225685 C526.37746179 440.2418595 520.86984967 440.22557737 515.36216736 440.21113968 C508.39952763 440.19196136 501.43691461 440.16929438 494.47429974 440.14256986 C480.78546771 440.09039353 467.0967113 440.06675759 453.40779114 440.05371475 C451.24923163 440.05153283 449.09067213 440.04934454 446.93211263 440.04714996 C442.56265206 440.0427825 438.19319136 440.03855428 433.82373059 440.03439081 C422.60320759 440.02355838 411.3826879 440.01100505 400.16217041 439.99544144 C398.47393315 439.9931158 398.47393315 439.9931158 396.75159008 439.99074318 C378.52221221 439.9643766 360.29316926 439.89794541 342.06395518 439.81851784 C323.32106962 439.73796551 304.57854755 439.70720858 285.83549267 439.72058505 C274.28976164 439.72713612 262.74552392 439.69437367 251.20009095 439.61031612 C243.28001876 439.55624004 235.36080186 439.55018559 227.44060945 439.58110604 C222.8784522 439.59747705 218.31888737 439.59326686 213.75706482 439.53129768 C188.703039 438.80357318 188.703039 438.80357318 167.52481174 450.95982265 C166.98373472 451.50801454 166.4426577 452.05620642 165.88518441 452.62101018 C163.77958375 454.70179118 161.43556312 456.36147935 159.00518799 458.04158401 C157.57992678 459.09130427 156.15542152 460.14205186 154.73175049 461.19392776 C153.94800049 461.7720723 153.16425049 462.35021683 152.35675049 462.94588089 C146.68806942 467.13318333 141.04620424 471.3552924 135.41485596 475.59260941 C129.45483291 480.07188599 123.45089493 484.49043865 117.44293213 488.90510941 C112.88927246 492.25454916 108.35325935 495.6254016 103.83966064 499.02864456 C101.85636693 500.52215137 99.86702197 502.00724298 97.87628174 503.49080276 C95.72122277 505.09773093 93.60241848 506.72830712 91.49346924 508.39705276 C86.00823282 512.59415435 81.3955542 514.90234436 74.35675049 514.13142776 C70.03548889 512.97418588 66.56859358 511.6979933 63.78204346 508.09578323 C61.87003179 504.11913959 61.77028213 500.668227 61.64190674 496.30330276 C61.60775162 495.43227921 61.5735965 494.56125565 61.53840637 493.66383743 C61.18235156 482.89950037 61.48839061 472.14316427 61.79425049 461.38142776 C61.84767261 459.30462243 61.90041025 457.22779936 61.95245361 455.15095901 C62.07936911 450.14421015 62.21540571 445.13778919 62.35675049 440.13142776 C61.40700348 440.14031021 60.45725647 440.14919266 59.47872925 440.15834427 C50.44869229 440.24007115 41.4187321 440.29969666 32.38840675 440.33867645 C27.74781285 440.35939128 23.10752176 440.38740722 18.46710205 440.43318558 C13.97367837 440.47722721 9.48054257 440.50068527 4.9869194 440.51093674 C3.28802341 440.51822512 1.58913992 440.5324508 -0.10963058 440.55434799 C-28.82047094 440.90909924 -52.24010922 431.42067766 -73.64324951 412.13142776 C-95.50479545 390.26988182 -102.87462797 363.46804785 -102.92541504 333.32979202 C-102.92312177 330.96712091 -102.92061214 328.60445 -102.91790771 326.24177933 C-102.92226029 323.72560348 -102.92744525 321.20942896 -102.93339539 318.69325638 C-102.94535604 312.5925695 -102.94794377 306.49194337 -102.94559512 300.39124706 C-102.94380466 295.42649999 -102.94557713 290.46176621 -102.94981956 285.49702072 C-102.95041475 284.78764718 -102.95100994 284.07827364 -102.95162317 283.34740393 C-102.95283505 281.9058153 -102.95404919 280.46422668 -102.95526554 279.02263805 C-102.96611763 265.5326621 -102.96398983 252.04271121 -102.9578807 238.55273387 C-102.95271517 226.24628042 -102.96396152 213.93990621 -102.98297892 201.63346842 C-103.00241165 188.95987823 -103.01060372 176.28632542 -103.00685567 163.61272025 C-103.00495164 156.51246643 -103.00735254 149.41227999 -103.02157021 142.31203842 C-103.03481512 135.6306397 -103.03215064 128.94942416 -103.01915932 122.26801682 C-103.01680629 119.82728394 -103.01948206 117.38653975 -103.02778244 114.94581985 C-103.12033694 85.59523715 -98.02780401 60.03639561 -78.64324951 37.13142776 C-78.11344482 36.46884964 -77.58364014 35.80627151 -77.03778076 35.12361526 C-58.69880785 12.90775734 -28.52454495 -0.05711088 0 0 Z M-32.45574951 35.81892776 C-33.16586182 36.16560501 -33.87597412 36.51228226 -34.60760498 36.86946487 C-40.59741796 39.89715483 -45.72272246 43.55636467 -50.64324951 48.13142776 C-51.25039795 48.65994339 -51.85754639 49.18845901 -52.48309326 49.73299026 C-63.88829417 60.2330165 -72.64823639 76.01518723 -73.82981741 91.59076166 C-73.90286432 94.41994084 -73.91464597 97.2430265 -73.90394592 100.07313919 C-73.90777147 101.15364918 -73.91159702 102.23415916 -73.91553849 103.34741187 C-73.92583153 106.95678221 -73.92188329 110.56599237 -73.91790771 114.17537308 C-73.92225627 116.76788861 -73.9274399 119.36040285 -73.93339539 121.95291519 C-73.946123 128.25781102 -73.94793843 134.56266422 -73.94559512 140.86757073 C-73.9438093 145.99552372 -73.94556727 151.1234638 -73.94981956 156.25141525 C-73.95041475 156.98233739 -73.95100994 157.71325952 -73.95162317 158.46633081 C-73.95283498 159.95141477 -73.95404911 161.43649872 -73.95526554 162.92158267 C-73.96613404 176.83915779 -73.96398212 190.75670866 -73.9578807 204.67428514 C-73.9527146 217.38859118 -73.96396009 230.10282053 -73.98297892 242.8171114 C-74.00238248 255.88941331 -74.01060875 268.96167899 -74.00685567 282.03399539 C-74.00494712 289.36611247 -74.00739705 296.69816433 -74.02157021 304.03026962 C-74.03476978 310.92826507 -74.03218979 317.82610501 -74.01915932 324.72410011 C-74.01679718 327.25078191 -74.01951515 329.77747453 -74.02778244 332.30414391 C-74.03828223 335.76353278 -74.03012275 339.22241079 -74.01747131 342.68178177 C-74.0248456 343.67247201 -74.03221988 344.66316226 -74.03981763 345.68387341 C-73.96263019 355.77402523 -71.64860221 365.28562675 -67.01824951 374.25642776 C-66.6727002 374.93383011 -66.32715088 375.61123245 -65.97113037 376.30916214 C-62.71444118 382.43287617 -58.66834393 387.34726253 -53.64324951 392.13142776 C-52.91106201 392.84814651 -52.17887451 393.56486526 -51.42449951 394.30330276 C-34.39515259 410.25332488 -14.86888815 412.41411922 7.4312439 412.43638802 C10.41622637 412.44009538 13.40088939 412.45693375 16.38580322 412.47714615 C24.86189861 412.532184 33.33803648 412.56335993 41.81427002 412.58772659 C47.02296702 412.60359299 52.23142778 412.63378166 57.44000244 412.67249107 C59.41751605 412.68412713 61.39507179 412.6900713 63.37261963 412.6901722 C66.1293012 412.69036411 68.88532701 412.70861427 71.64190674 412.730793 C72.45442398 412.72621582 73.26694122 412.72163864 74.1040802 412.71692276 C78.75273322 412.77642254 81.5667367 413.44428642 85.35675049 416.13142776 C86.01675049 416.13142776 86.67675049 416.13142776 87.35675049 416.13142776 C89.14527012 420.54310952 90.47602553 424.18828391 90.56207275 428.97005081 C90.58201797 429.95084106 90.6019632 430.93163132 90.62251282 431.94214249 C90.64758156 433.52663948 90.64758156 433.52663948 90.67315674 435.14314651 C90.70432838 436.76818855 90.70432838 436.76818855 90.73612976 438.42605972 C90.80156845 441.89028393 90.86048402 445.35458457 90.91925049 448.81892776 C90.96244109 451.16594091 91.00605556 453.5129463 91.05010986 455.85994339 C91.15724405 461.61702381 91.25902113 467.37418043 91.35675049 473.13142776 C98.15954303 468.68087472 98.15954303 468.68087472 104.68096924 463.83455276 C105.74710449 462.99356033 105.74710449 462.99356033 106.83477783 462.13557816 C107.56390381 461.55670853 108.29302979 460.9778389 109.04425049 460.38142776 C114.89913492 455.7797849 120.80414209 451.3065722 126.89556885 447.02425003 C132.04368385 443.39110368 137.07557986 439.61183333 142.10675049 435.81892776 C144.67239231 433.89304564 147.23914571 431.96865727 149.80645752 430.04500198 C151.4943659 428.77850515 153.18027259 427.5093358 154.86407471 426.2373848 C157.24884104 424.44016272 159.64492534 422.65914641 162.04425049 420.88142776 C162.74968994 420.34477493 163.45512939 419.8081221 164.1819458 419.25520706 C165.2023999 418.50557693 165.2023999 418.50557693 166.24346924 417.74080276 C166.82314453 417.3073555 167.40281982 416.87390823 168.00006104 416.4273262 C176.58073787 411.70897619 184.99390014 411.71644777 194.60578918 411.79085159 C196.15307837 411.79169255 197.70036876 411.79120092 199.24765724 411.78949833 C203.48352933 411.78861461 207.71914715 411.80637414 211.95496047 411.82720804 C216.52977851 411.84637624 221.1046066 411.84804121 225.67945862 411.85173416 C233.60399491 411.86038586 241.52844712 411.87969107 249.4529438 411.90593338 C260.92777538 411.94365072 272.40257593 411.96183905 283.87745928 411.97473347 C302.51877432 411.9959287 321.1600503 412.02832481 339.80133057 412.06990433 C340.91651524 412.07238776 342.03169991 412.0748712 343.18067806 412.07742989 C352.2247782 412.09765513 361.26887708 412.11842354 370.31297588 412.13923836 C378.20850762 412.1573913 386.1040398 412.17533489 393.99957275 412.1929512 C395.11127213 412.19543558 396.2229715 412.19791996 397.36835874 412.20047963 C415.93255323 412.24159809 434.49674839 412.2708442 453.06097645 412.29168224 C464.50009297 412.30509514 475.93909231 412.32915161 487.37815421 412.36711669 C495.22416191 412.39247712 503.07014275 412.40708527 510.91618872 412.41339231 C515.43667055 412.41740996 519.95700079 412.42632106 524.47743225 412.44866943 C528.62599913 412.46910054 532.77434841 412.475287 536.92296087 412.47076261 C538.41355762 412.47156854 539.90416314 412.47737007 541.39471442 412.48904097 C565.40085691 412.66808461 586.13688726 406.45831494 603.85284424 389.72517776 C623.25390156 369.62798266 622.50852284 345.36731946 622.50201416 319.37166214 C622.5050103 316.97707441 622.50841388 314.58248717 622.51219177 312.18790054 C622.52007613 306.3853534 622.52324425 300.58281864 622.52380415 294.7802664 C622.52428148 290.06005372 622.52634695 285.33984435 622.52950478 280.61963272 C622.53829544 267.20459613 622.54292633 253.78956749 622.5421743 240.37452799 C622.54213435 239.65347972 622.54209439 238.93243145 622.54205322 238.18953323 C622.54201234 237.46759417 622.54197146 236.74565511 622.54192934 236.0018391 C622.54152273 224.29732143 622.55110032 212.59283591 622.56519159 200.88832754 C622.57958297 188.83852869 622.58646034 176.78874551 622.58559781 164.73893785 C622.58526693 157.98646845 622.58796665 151.23403281 622.59877586 144.4815712 C622.6084839 138.13181372 622.60851747 131.78212737 622.60125923 125.43236732 C622.60021693 123.10928302 622.6025551 120.78619422 622.60861969 118.4631176 C622.66876135 93.81984627 620.50237045 72.21068506 602.65753174 53.43611526 C601.51864502 52.29529495 601.51864502 52.29529495 600.35675049 51.13142776 C599.66968018 50.43275589 598.98260986 49.73408401 598.27471924 49.01424026 C584.49468137 35.87335072 565.84941422 28.96240296 546.95959663 29 C546.00439023 28.99794737 545.04918382 28.99589473 544.06503177 28.9937799 C540.84561829 28.98809929 537.62624745 28.98956847 534.40682983 28.99098587 C532.08269224 28.98840283 529.75855509 28.98538984 527.43441856 28.98198247 C521.70469668 28.97474993 515.97498597 28.97220948 510.24525986 28.97165341 C503.38271804 28.97073961 496.52018483 28.9640715 489.65764671 28.95730659 C473.0690567 28.94124443 456.4804676 28.93534271 439.89187121 28.93055784 C432.04259666 28.92822174 424.19332284 28.92461903 416.34404885 28.92086246 C389.47027316 28.90802569 362.59649788 28.89730746 335.72271919 28.89385986 C334.03559665 28.89363823 332.3484741 28.89341645 330.66135155 28.89319451 C328.97016648 28.89297387 327.27898141 28.89275339 325.58779633 28.89253306 C322.19502584 28.89209051 318.80225535 28.8916434 315.40948486 28.89119339 C314.56827456 28.891084 313.72706425 28.89097461 312.86036273 28.8908619 C285.59509007 28.88723272 258.32984403 28.87131857 231.06458157 28.84800303 C202.23250155 28.82339278 173.40043673 28.80968643 144.5683459 28.80849195 C141.40158073 28.80832049 138.23481556 28.80810507 135.06805038 28.80785751 C134.28831421 28.80780174 133.50857804 28.80774598 132.70521349 28.80768852 C120.16963873 28.80653899 107.63409132 28.79552519 95.09852578 28.78097046 C82.49093189 28.76658559 69.88337297 28.76337966 57.27577312 28.77141044 C50.44869595 28.77546708 43.62171602 28.77439261 36.79464912 28.76035309 C30.53958062 28.74760768 24.28467284 28.74881754 18.02960454 28.7609438 C15.77176162 28.76289969 13.5139073 28.75982743 11.2560804 28.75109944 C-3.8747286 28.69633194 -18.63072173 28.85121037 -32.45574951 35.81892776 Z " fill="#D49764" transform="translate(242.64324951171875,255.86857223510742)"/>
<path d="M0 0 C0.66 0.33 1.32 0.66 2 1 C-10.3772702 18.09688586 -35.52192337 28.9977661 -55.7126869 32.57342839 C-62.02178567 33.39211597 -68.35893297 33.27280482 -74.70869446 33.2515564 C-76.28133745 33.25369828 -77.85397944 33.25672615 -79.42661923 33.26055682 C-83.72281007 33.26855539 -88.01891322 33.26430997 -92.31510365 33.25803804 C-96.95788348 33.25348795 -101.60064706 33.26055275 -106.24342346 33.26634216 C-114.28031827 33.27495891 -122.31719106 33.27678729 -130.35408974 33.27439499 C-141.98051743 33.27129353 -153.60689658 33.28294885 -165.23331203 33.29894479 C-184.10679027 33.32488283 -202.98026854 33.34491557 -221.85375977 33.35839844 C-222.982399 33.35920881 -224.11103823 33.36001918 -225.27387866 33.3608541 C-241.3070468 33.37208671 -257.34021146 33.37735965 -273.37338301 33.38024123 C-274.5035382 33.38044522 -275.63369339 33.38064921 -276.7980957 33.38085938 C-277.92687165 33.38105931 -279.05564759 33.38125925 -280.21862886 33.38146524 C-299.02921893 33.38519573 -317.83975615 33.40426084 -336.65031976 33.43595374 C-348.25080695 33.45488117 -359.85115873 33.46082197 -371.45165714 33.45013656 C-379.39386351 33.44382665 -387.33597256 33.45183194 -395.27815757 33.47119068 C-399.86223473 33.48189154 -404.44607566 33.48599206 -409.03015137 33.47271919 C-413.2250959 33.46069454 -417.41959685 33.46697726 -421.61450269 33.48791118 C-423.13310937 33.49222392 -424.65175338 33.48975404 -426.17033402 33.47987001 C-428.23337298 33.46741529 -430.29487545 33.47953845 -432.35783863 33.49777794 C-433.50394731 33.49821267 -434.650056 33.49864741 -435.83089525 33.49909532 C-439.69261105 34.10947322 -441.91895305 35.65350087 -445 38 C-445.66 37.67 -446.32 37.34 -447 37 C-441.72023394 32.42420274 -438.90761418 30.87617455 -431.73536205 30.86971474 C-431.09451287 30.86777131 -430.45366369 30.86582788 -429.79339483 30.86382556 C-427.63130202 30.85848242 -425.46927262 30.86027117 -423.30717468 30.86196899 C-421.74713835 30.85955189 -420.18710265 30.85668992 -418.62706786 30.85341966 C-414.32827321 30.84565028 -410.02949451 30.84404637 -405.7306937 30.84336853 C-401.09852859 30.84153159 -396.46637287 30.83392605 -391.83421326 30.82688904 C-383.80156763 30.81535208 -375.76892411 30.80711344 -367.73627281 30.80076981 C-355.03370656 30.79044858 -342.33116652 30.76988488 -329.62861633 30.74765015 C-325.28304204 30.74016987 -320.93746764 30.73275616 -316.5918932 30.72536278 C-314.96269779 30.72258693 -314.96269779 30.72258693 -313.30058935 30.719755 C-300.93013178 30.69881782 -288.55967131 30.67999596 -276.18920898 30.66210938 C-275.05814422 30.66047119 -273.92707946 30.65883301 -272.76174001 30.65714519 C-254.45172348 30.63088685 -236.14170494 30.61222966 -217.83167758 30.59551747 C-199.03034502 30.57807991 -180.22905191 30.54921436 -161.42775089 30.5106281 C-149.8339879 30.48725904 -138.24028926 30.4732363 -126.64650253 30.47130047 C-118.69295718 30.46918661 -110.73947569 30.45621986 -102.78595903 30.43482114 C-98.20098819 30.4228262 -93.61614411 30.41561795 -89.03115845 30.42153358 C-84.82566768 30.42686219 -80.6204346 30.41824152 -76.41498671 30.39897721 C-74.90138504 30.39443452 -73.38775788 30.39482655 -71.87416168 30.40092559 C-45.52774405 30.49753148 -23.02585938 20.9107257 -3 4 C-1.21573522 1.86744976 -1.21573522 1.86744976 0 0 Z " fill="#D48C54" transform="translate(864,663)"/>
<path d="M0 0 C0.33 0 0.66 0 1 0 C1.00097681 0.56040725 1.00195362 1.12081451 1.00296003 1.6982038 C1.06128293 34.94214882 1.13511811 68.18601916 1.22898628 101.42988221 C1.2402539 105.42509695 1.25139244 109.42031203 1.26245117 113.41552734 C1.26465486 114.21087376 1.26685854 115.00622018 1.269129 115.82566801 C1.30446265 128.68917199 1.32934896 141.55267592 1.35034702 154.41621038 C1.37214044 167.62389199 1.40522439 180.83151084 1.44870156 194.03913903 C1.47515738 202.18326683 1.49289739 210.32731649 1.49934604 218.47148511 C1.50461856 224.06281293 1.52089774 229.65404259 1.54566566 235.24531773 C1.5596172 238.46703625 1.5672388 241.68854588 1.56500816 244.9102993 C1.5633487 248.41393405 1.58011287 251.91703233 1.60127258 255.42059326 C1.59642501 256.42452236 1.59157743 257.42845146 1.58658296 258.46280265 C1.68694888 268.58754 3.97774197 278.12035549 8.625 287.125 C8.96982422 287.80167725 9.31464844 288.47835449 9.66992188 289.17553711 C12.92204648 295.29516566 16.97528842 300.22342232 22 305 C22.65871094 305.64324219 23.31742188 306.28648437 23.99609375 306.94921875 C41.33969573 323.03654373 62.0452349 324.27669396 84.51953125 324.4140625 C86.47394089 324.43280967 88.42834273 324.45238561 90.38273621 324.4727478 C95.4838091 324.52370054 100.58490813 324.56352161 105.68609619 324.60089111 C110.9086331 324.64116408 116.13106477 324.69214919 121.35351562 324.7421875 C131.56893609 324.83850935 141.7844165 324.92305169 152 325 C152 325.33 152 325.66 152 326 C139.62133627 326.04639632 127.24269333 326.08190632 114.86396027 326.10362434 C109.11565575 326.11404932 103.36741084 326.12818514 97.61914062 326.15087891 C92.06891801 326.17265299 86.51875264 326.1845783 80.9684906 326.18975449 C78.85386759 326.19344203 76.73924761 326.20064287 74.62464905 326.21146011 C71.65659887 326.2260356 68.68878349 326.2279754 65.72070312 326.22705078 C64.85179443 326.23424133 63.98288574 326.24143188 63.08764648 326.24884033 C45.70551866 326.1904723 30.93280383 317.3213564 18.57421875 305.66796875 C5.04257416 291.64351768 -1.16966996 274.52245447 -1.12698364 255.31416321 C-1.12854363 254.23717909 -1.13010362 253.16019496 -1.13171089 252.05057496 C-1.13569968 248.44166171 -1.13253945 244.83279052 -1.12939453 241.22387695 C-1.13074949 238.63675919 -1.13252995 236.04964162 -1.13470459 233.46252441 C-1.13914881 227.16572885 -1.13819193 220.86894522 -1.13529195 214.57214919 C-1.13303324 209.45599324 -1.13272743 204.33984062 -1.13381577 199.22368431 C-1.133969 198.49544341 -1.13412223 197.76720251 -1.13428011 197.01689371 C-1.13459983 195.53750911 -1.13492404 194.05812451 -1.1352527 192.5787399 C-1.13810339 178.71104826 -1.13482659 164.84336324 -1.12945233 150.97567268 C-1.12498184 139.07126221 -1.12576304 127.16686148 -1.13037109 115.26245117 C-1.13571924 101.43960271 -1.13783171 87.61676003 -1.13475883 73.79391068 C-1.13444028 72.32089659 -1.13412591 70.84788249 -1.13381577 69.37486839 C-1.13366149 68.65009946 -1.13350721 67.92533052 -1.13334826 67.17859888 C-1.13248404 62.06583995 -1.13394389 56.95308468 -1.13629532 51.84032631 C-1.13938807 44.96459147 -1.13719517 38.08887541 -1.13140106 31.2131424 C-1.13007454 28.68429533 -1.13046576 26.15544672 -1.13266373 23.62660027 C-1.13537933 20.18600752 -1.13198902 16.74547475 -1.12698364 13.30488586 C-1.12921436 12.29439771 -1.13144509 11.28390955 -1.13374341 10.24280053 C-1.12983178 8.86519155 -1.12983178 8.86519155 -1.12584114 7.45975208 C-1.12567879 6.6652121 -1.12551644 5.87067213 -1.12534916 5.05205518 C-1 3 -1 3 0 0 Z " fill="#CD8350" transform="translate(168,343)"/>
<path d="M0 0 C0.33 0 0.66 0 1 0 C0.85786703 1.89611434 0.71113093 3.79188394 0.5625 5.6875 C0.48128906 6.74324219 0.40007812 7.79898437 0.31640625 8.88671875 C0 12 0 12 -0.51191032 14.40482128 C-0.9789649 16.88815613 -1.12531636 19.11422092 -1.12584114 21.63614082 C-1.12844889 22.54296203 -1.13105664 23.44978323 -1.13374341 24.38408387 C-1.13151268 25.37133796 -1.12928196 26.35859205 -1.12698364 27.37576294 C-1.12854363 28.43147488 -1.13010362 29.48718681 -1.13171089 30.57489002 C-1.13570443 34.11781191 -1.13253759 37.66069106 -1.12939453 41.20361328 C-1.13074928 43.74132309 -1.13252963 46.2790327 -1.13470459 48.81674194 C-1.13879541 54.99670078 -1.13819073 61.17664375 -1.13529195 67.3566028 C-1.13303407 72.37791235 -1.13272707 77.3992185 -1.13381577 82.42052841 C-1.133969 83.13502799 -1.13412223 83.84952758 -1.13428011 84.58567866 C-1.13459983 86.0371198 -1.13492404 87.48856093 -1.1352527 88.94000207 C-1.1381042 102.54969022 -1.13482542 116.15937164 -1.12945233 129.76905869 C-1.12498268 141.45232505 -1.1257622 153.13558148 -1.13037109 164.81884766 C-1.13571937 178.38276135 -1.13783156 191.94666915 -1.13475883 205.51058376 C-1.13444028 206.95609021 -1.1341259 208.40159666 -1.13381577 209.84710312 C-1.13366149 210.55834649 -1.13350721 211.26958987 -1.13334826 212.00238607 C-1.13248401 217.01995483 -1.13394398 222.03751986 -1.13629532 227.05508804 C-1.13938829 233.80359004 -1.13719483 240.55207032 -1.13140106 247.30057144 C-1.13007459 249.78265349 -1.13046568 252.26473711 -1.13266373 254.74681854 C-1.13537955 258.12396882 -1.13198873 261.50105801 -1.12698364 264.87820435 C-1.12921436 265.86991988 -1.13144509 266.86163542 -1.13374341 267.88340294 C-1.13113566 268.78500865 -1.12852791 269.68661436 -1.12584114 270.61554146 C-1.12567879 271.3954347 -1.12551644 272.17532793 -1.12534916 272.9788543 C-1.07410427 275.2058504 -1.07410427 275.2058504 0 278 C0.068991 280.06145107 0.08467727 282.12501401 0.0625 284.1875 C0.05347656 285.27417969 0.04445312 286.36085938 0.03515625 287.48046875 C0.02355469 288.31191406 0.01195312 289.14335938 0 290 C-0.66 289.67 -1.32 289.34 -2 289 C-5.59468588 277.08006525 -4.28871455 263.39040657 -4.2746582 251.11035156 C-4.27901077 248.59417571 -4.28419574 246.07800119 -4.29014587 243.56182861 C-4.30210652 237.46114173 -4.30469426 231.3605156 -4.30234561 225.2598193 C-4.30055515 220.29507223 -4.30232762 215.33033844 -4.30657005 210.36559296 C-4.30716524 209.65621941 -4.30776043 208.94684587 -4.30837366 208.21597616 C-4.30958554 206.77438754 -4.31079968 205.33279891 -4.31201603 203.89121029 C-4.32286812 190.40123434 -4.32074032 176.91128345 -4.31463119 163.4213061 C-4.30946566 151.11485265 -4.32071201 138.80847844 -4.33972941 126.50204065 C-4.35916214 113.82845046 -4.36735421 101.15489765 -4.36360615 88.48129249 C-4.36170213 81.38103866 -4.36410302 74.28085223 -4.37832069 67.18061066 C-4.39156561 60.49921194 -4.38890112 53.8179964 -4.37590981 47.13658905 C-4.37355678 44.69585617 -4.37623255 42.25511199 -4.38453293 39.81439209 C-4.42608187 26.63852661 -4.25395238 13.83974155 -1 1 C-0.67 0.67 -0.34 0.34 0 0 Z " fill="#D48E57" transform="translate(144,331)"/>
<path d="M0 0 C10.80465061 0.10733183 21.60923208 0.21993014 32.41375637 0.33933926 C37.43019298 0.39461239 42.44663537 0.44803926 47.46313477 0.49731445 C52.30014866 0.54489343 57.13708931 0.59723363 61.97401619 0.65294075 C63.8236618 0.67339371 65.67332752 0.69210181 67.52300835 0.70907402 C70.10452454 0.7330532 72.68590097 0.76311618 75.26733398 0.79467773 C76.03985001 0.8004332 76.81236603 0.80618866 77.60829163 0.81211853 C82.88594784 0.88594784 82.88594784 0.88594784 84 2 C84.07294327 3.89662037 84.07519674 5.79599172 84.05004883 7.69384766 C84.03706253 8.9124649 84.02407623 10.13108215 84.01069641 11.3866272 C84.00171137 12.04243397 83.99272633 12.69824074 83.98346901 13.37392044 C83.95687887 15.42582163 83.93897697 17.47761561 83.92399597 19.52963257 C83.88121374 25.36581923 83.8339344 31.20179664 83.75317383 37.03759766 C83.70444373 40.60490672 83.6755935 44.17191441 83.65942955 47.7395134 C83.64479294 49.75306228 83.60882193 51.7664198 83.57246399 53.7796936 C83.55270679 60.70643886 83.64550889 65.4568275 88 71 C91.8760038 73.40940777 95.5164456 73.37362953 100 73 C103.06265215 72.15496201 106.03190948 71.13070115 109 70 C109 69.34 109 68.68 109 68 C110.78233868 66.63883039 112.63051283 65.36376213 114.5 64.125 C119.79896325 60.55641597 124.96391283 56.84947919 130.0625 53 C130.7423999 52.48719482 131.4222998 51.97438965 132.12280273 51.44604492 C133.46135824 50.43501686 134.79934579 49.42323633 136.13671875 48.41064453 C143.85283663 42.56896094 151.61890528 36.79932404 159.43164062 31.08789062 C163.33140036 28.23392111 167.20564209 25.34940204 171.0625 22.4375 C177.61940725 17.49969263 184.30321481 12.74520725 191 8 C191.99 8.495 191.99 8.495 193 9 C186.96638378 13.97703826 180.7727633 18.63958651 174.38623047 23.14599609 C170.34892109 26.00616488 166.40297248 28.9595267 162.5 32 C158.2390553 35.31641926 153.91585419 38.5164753 149.5 41.625 C143.44501764 45.8916965 137.56334677 50.36567853 131.6875 54.875 C128.9929165 56.92874368 126.29582402 58.97910989 123.59667969 61.02685547 C121.91425343 62.3052843 120.2350021 63.58790655 118.55957031 64.87548828 C116.32573969 66.58428923 114.0729638 68.26416632 111.8125 69.9375 C111.16692139 70.43942871 110.52134277 70.94135742 109.85620117 71.45849609 C104.81441847 75.12560067 100.22271008 76.14830356 94 76 C91.16015625 75.3984375 91.16015625 75.3984375 89.0625 74.375 C88.35222656 74.05273438 87.64195312 73.73046875 86.91015625 73.3984375 C83.95651248 71.23605617 82.31500111 68.75515727 81.65910339 65.10055542 C81.45688847 62.78861398 81.35338346 60.49168563 81.28515625 58.171875 C81.25100113 57.30085144 81.21684601 56.42982788 81.18165588 55.53240967 C80.82560107 44.76807261 81.13164012 34.01173651 81.4375 23.25 C81.49092212 21.17319466 81.54365976 19.0963716 81.59570312 17.01953125 C81.72261862 12.01278238 81.85865522 7.00636143 82 2 C81.01694382 2.00444122 80.03388763 2.00888245 79.02104187 2.01345825 C69.76553599 2.05396715 60.51004804 2.0839665 51.25447369 2.10362434 C46.49586485 2.1140703 41.73732747 2.12824431 36.97875977 2.15087891 C32.38816944 2.17257834 27.79764792 2.18456251 23.20701027 2.18975449 C21.45388518 2.19345546 19.70076394 2.20068236 17.94766808 2.21146011 C15.49587176 2.22593655 13.04436134 2.22797957 10.5925293 2.22705078 C9.50064552 2.23783661 9.50064552 2.23783661 8.38670349 2.24884033 C4.6941978 2.233662 3.15989075 2.10659383 0 0 Z " fill="#CC8753" transform="translate(223,694)"/>
<path d="M0 0 C0.33 0 0.66 0 1 0 C1.02337982 19.02825137 1.04100414 38.05649981 1.05181217 57.08476257 C1.05696433 65.9202828 1.06398644 74.7557941 1.07543945 83.59130859 C1.0854193 91.29402167 1.09186129 98.99672827 1.09408849 106.69944763 C1.09538999 110.7764262 1.09844032 114.85338626 1.10573006 118.93035889 C1.11254237 122.77162157 1.11460638 126.6128582 1.11310768 130.45412636 C1.11338167 131.86014256 1.11535577 133.26615968 1.11920547 134.67217064 C1.13707084 141.5366328 1.07922143 148.21282879 0 155 C-0.33 155 -0.66 155 -1 155 C-2.02740002 147.38456862 -2.14800936 139.90013559 -2.14526367 132.22192383 C-2.14826124 130.85103769 -2.15166514 129.4801524 -2.15544128 128.10926819 C-2.16421935 124.41116454 -2.16661662 120.71308408 -2.16725707 117.01497102 C-2.16797049 114.70139659 -2.17011019 112.38782797 -2.17275429 110.07425499 C-2.18198341 101.99489343 -2.18609176 93.9155483 -2.18530273 85.83618164 C-2.18470087 78.31583846 -2.19528028 70.79556675 -2.2110464 63.27524167 C-2.22412678 56.80452825 -2.2294865 50.33383821 -2.22884732 43.86311167 C-2.22859272 40.00428951 -2.23142412 36.14553112 -2.24202538 32.28672218 C-2.25171611 28.66117729 -2.25177891 25.03575707 -2.24450874 21.41020775 C-2.24296759 19.45050832 -2.25130062 17.49080888 -2.25994873 15.53112793 C-2.25575424 14.35790482 -2.25155975 13.1846817 -2.24723816 11.97590637 C-2.24778293 10.96071836 -2.24832769 9.94553034 -2.24888897 8.89957905 C-1.97302525 5.68574172 -1.12891371 3.01163542 0 0 Z " fill="#D18E59" transform="translate(866,453)"/>
<path d="M0 0 C0.99 0.495 0.99 0.495 2 1 C-3.67872666 6.46697753 -10.00193773 10.89683687 -16.44946289 15.38818359 C-21.92075617 19.20927281 -27.21292176 23.18945034 -32.4765625 27.29296875 C-37.61170574 31.27036511 -42.87079187 35.08353189 -48.11474609 38.91552734 C-52.88553809 42.41006938 -57.55920602 45.99322901 -62.16113281 49.70825195 C-64 51 -64 51 -66 51 C-66 51.66 -66 52.32 -66 53 C-67.32 53 -68.64 53 -70 53 C-70 35.84 -70 18.68 -70 1 C-69.01 1.495 -69.01 1.495 -68 2 C-67.67 17.84 -67.34 33.68 -67 50 C-58.09 43.07 -58.09 43.07 -49 36 C-39.8963806 29.41440299 -39.8963806 29.41440299 -35.73046875 26.4375 C-29.53211136 21.96974186 -23.48010543 17.30922764 -17.43041992 12.64306641 C-11.73088521 8.26138513 -5.92267244 4.07498766 0 0 Z " fill="#CE8955" transform="translate(402,678)"/>
<path d="M0 0 C0.33 0 0.66 0 1 0 C2.38618899 10.69313517 2.12662736 21.44095845 2.09765625 32.19921875 C2.09578823 34.24615952 2.09436614 36.29310074 2.09336853 38.34004211 C2.08957362 43.69437929 2.07976958 49.0486888 2.06866455 54.40301514 C2.05838496 59.88000108 2.05385695 65.35699154 2.04882812 70.83398438 C2.03814425 81.55600166 2.0211047 92.27799852 2 103 C1.01 103.495 1.01 103.495 0 104 C-0.71738866 98.83666198 -1.12601708 93.87158189 -1.12939453 88.64794922 C-1.13114685 87.96035522 -1.13289917 87.27276123 -1.13470459 86.56433105 C-1.13907127 84.3110901 -1.13619888 82.05792914 -1.1328125 79.8046875 C-1.1334881 78.20972682 -1.13446024 76.61476624 -1.13571167 75.01980591 C-1.13718258 71.67611715 -1.13505761 68.33245516 -1.13037109 64.98876953 C-1.12473827 60.77098796 -1.12800115 56.55327041 -1.13382339 52.33549118 C-1.15415504 34.86551676 -1.07422511 17.44453489 0 0 Z " fill="#D18F5A" transform="translate(865,349)"/>
<path d="M0 0 C0.66 0.33 1.32 0.66 2 1 C0.50067938 2.35491884 -0.99950054 3.70888678 -2.5 5.0625 C-3.41910156 5.89523437 -4.33820313 6.72796875 -5.28515625 7.5859375 C-6.84905644 8.97657105 -8.43107205 10.34845672 -10.05859375 11.6640625 C-19.26672982 19.13011877 -26.8235815 29.37906164 -32 40 C-32.35449219 40.67417969 -32.70898438 41.34835937 -33.07421875 42.04296875 C-35.43462928 46.57951985 -37.2803788 51.18506065 -39 56 C-40.81803315 51.18221215 -38.55351429 47.75534595 -36.5859375 43.29296875 C-32.33605918 34.46871402 -27.27030381 26.51306673 -21 19 C-20.46890625 18.33484375 -19.9378125 17.6696875 -19.390625 16.984375 C-13.87576685 10.31402277 -7.19074081 4.79382721 0 0 Z " fill="#D08B56" transform="translate(185,274)"/>
<path d="M0 0 C0.99 0.495 0.99 0.495 2 1 C-9.4681293 16.8410776 -32.02374038 27.10335131 -50.5625 31.625 C-53.18580999 32.02858615 -55.65990561 32.09786793 -58.3125 32.0625 C-59.19550781 32.05347656 -60.07851563 32.04445313 -60.98828125 32.03515625 C-61.65214844 32.02355469 -62.31601562 32.01195312 -63 32 C-63 31.67 -63 31.34 -63 31 C-62.12601563 30.85304688 -61.25203125 30.70609375 -60.3515625 30.5546875 C-39.35085476 26.72436974 -15.15949701 18.98906549 -1.13671875 1.703125 C-0.76160156 1.14109375 -0.38648438 0.5790625 0 0 Z " fill="#CD8853" transform="translate(864,663)"/>
<path d="M0 0 C9.79689522 4.50612343 16.61441042 12.58210704 23 21 C23.70253906 21.88816406 24.40507813 22.77632813 25.12890625 23.69140625 C32.14639172 32.8394376 39.7275628 44.99521379 39 57 C36.8961053 53.84415795 35.94209027 51.09216533 34.75 47.5 C28.50806655 29.56917378 17.0225207 14.64247337 1.72265625 3.48046875 C1.15417969 2.99191406 0.58570313 2.50335938 0 2 C0 1.34 0 0.68 0 0 Z " fill="#CD8956" transform="translate(850,278)"/>
<path d="M0 0 C3.34321955 1.11440652 4.06019619 1.97472343 6.25 4.625 C14.55979953 14.35735393 23.48172514 21.24294714 34.75 27.3125 C35.37583984 27.65015381 36.00167969 27.98780762 36.64648438 28.33569336 C39.50140346 29.83482927 42.26475903 31.08794226 45.328125 32.10546875 C48 33 48 33 50 35 C44.44619942 34.48269904 40.25470379 33.04376355 35.3125 30.5 C34.61624512 30.14542725 33.91999023 29.79085449 33.20263672 29.42553711 C20.56615826 22.79421239 7.62795326 13.20472522 0 1 C0 0.67 0 0.34 0 0 Z " fill="#D08954" transform="translate(160,656)"/>
<path d="M0 0 C0.33 0 0.66 0 1 0 C1 18.48 1 36.96 1 56 C0.67 56 0.34 56 0 56 C0 53.36 0 50.72 0 48 C-0.66 47.67 -1.32 47.34 -2 47 C-1.88109162 41.59215403 -1.75680392 36.18446732 -1.62768555 30.77685547 C-1.58456553 28.93997495 -1.54287594 27.10306024 -1.50268555 25.26611328 C-1.44442293 22.61480436 -1.38089461 19.96366394 -1.31640625 17.3125 C-1.29969376 16.50071289 -1.28298126 15.68892578 -1.26576233 14.85253906 C-1.13755742 9.83749689 -0.69810382 4.96871045 0 0 Z " fill="#D18F5B" transform="translate(306,696)"/>
<path d="M0 0 C0.495 0.99 0.495 0.99 1 2 C-8.30884878 15.54702383 -21.12079822 26.84998861 -37 32 C-40.0625 32.25 -40.0625 32.25 -42 32 C-40.49051919 28.98103837 -38.26703222 28.89557699 -35.125 27.8125 C-20.43432043 22.30550209 -9.07263434 12.70769645 0 0 Z " fill="#D08C57" transform="translate(855,634)"/>
<path d="M0 0 C12.72250674 7.82923492 23.55596972 19.9457461 29 34 C28.65234375 36.31640625 28.65234375 36.31640625 28 38 C27.50371094 37.02160156 27.00742187 36.04320312 26.49609375 35.03515625 C20.17788775 22.76385882 12.94601721 12.29059696 2 3.625 C1.34 3.08875 0.68 2.5525 0 2 C0 1.34 0 0.68 0 0 Z " fill="#D28C57" transform="translate(833,297)"/>
<path d="M0 0 C-0.71542969 0.27972656 -1.43085938 0.55945313 -2.16796875 0.84765625 C-12.38777376 4.95937599 -22.89534901 9.35847193 -31 17 C-31.66 16.67 -32.32 16.34 -33 16 C-25.66435762 9.23013855 -10.73755952 -4.2220501 0 0 Z " fill="#CF8954" transform="translate(224,287)"/>
<path d="M0 0 C1 3 1 3 -0.15234375 5.96875 C-5.08523037 15.72658262 -10.08632904 25.30703599 -19 32 C-18.34 30.35 -17.68 28.7 -17 27 C-16.34 27 -15.68 27 -15 27 C-14.73703125 26.443125 -14.4740625 25.88625 -14.203125 25.3125 C-12.87128168 22.75259336 -11.34070254 20.40754979 -9.75 18 C-6.02685616 12.21624824 -2.95596411 6.20427632 0 0 Z " fill="#CC8651" transform="translate(885,631)"/>
<path d="M0 0 C5.57687856 0.53028956 9.71881045 2.63567673 14.5625 5.25 C15.30435547 5.63285156 16.04621094 6.01570313 16.81054688 6.41015625 C21.27848708 8.78934436 24.62062531 11.22580728 28 15 C24.39068207 14.36649385 22.05546372 12.82032077 19.0625 10.75 C13.04672356 6.8072276 6.77589492 4.33762989 0 2 C0 1.34 0 0.68 0 0 Z " fill="#CD8A56" transform="translate(822,263)"/>
<path d="M0 0 C2.62182739 2.90273746 4.38290038 5.67021479 5.875 9.25 C7.70209134 13.61309411 10.08875241 17.30772925 12.828125 21.15234375 C14 23 14 23 14 25 C10.62089905 23.87363302 10.43341244 23.52960983 8.80859375 20.578125 C8.42123047 19.88203125 8.03386719 19.1859375 7.63476562 18.46875 C7.23966797 17.7365625 6.84457031 17.004375 6.4375 16.25 C5.83905273 15.17492187 5.83905273 15.17492187 5.22851562 14.078125 C0 4.58125522 0 4.58125522 0 0 Z " fill="#CD8954" transform="translate(146,630)"/>
<path d="M0 0 C1.03311995 3.1412431 0.99963588 4.8244183 -0.25 7.875 C-0.52972656 8.56335938 -0.80945313 9.25171875 -1.09765625 9.9609375 C-2.30569794 12.69079795 -3.61252055 15.357182 -5 18 C-6.66201898 13.94507418 -5.20927166 11.22066185 -3.625 7.3125 C-3.16351562 6.15363281 -2.70203125 4.99476563 -2.2265625 3.80078125 C-1 1 -1 1 0 0 Z " fill="#CF8C56" transform="translate(863,615)"/>
<path d="M0 0 C0.54269531 0.23203125 1.08539063 0.4640625 1.64453125 0.703125 C1.07605469 1.01765625 0.50757813 1.3321875 -0.078125 1.65625 C-4.85708518 4.30502259 -9.61767297 6.98141253 -14.35546875 9.703125 C-13.06182022 5.8221794 -11.44843533 5.13623205 -8.04296875 2.953125 C-7.07746094 2.31890625 -6.11195313 1.6846875 -5.1171875 1.03125 C-2.35546875 -0.296875 -2.35546875 -0.296875 0 0 Z " fill="#CF8A55" transform="translate(419.35546875,668.296875)"/>
<path d="M0 0 C0.33 0 0.66 0 1 0 C0.85786703 1.89611434 0.71113093 3.79188394 0.5625 5.6875 C0.48128906 6.74324219 0.40007812 7.79898437 0.31640625 8.88671875 C0.03548319 11.65086297 -0.40156852 14.28945741 -1 17 C-3.7930115 12.81048275 -2.91461658 9.79124832 -2 5 C-0.9375 1.9375 -0.9375 1.9375 0 0 Z " fill="#D08D57" transform="translate(144,331)"/>
<path d="M0 0 C2.35119399 3.52679099 2.21443452 5.02879485 2.125 9.1875 C2.10695312 10.27417969 2.08890625 11.36085938 2.0703125 12.48046875 C2.03550781 13.72763672 2.03550781 13.72763672 2 15 C1.34 14.67 0.68 14.34 0 14 C-0.44921875 11.85546875 -0.44921875 11.85546875 -0.6875 9.1875 C-0.77386719 8.31480469 -0.86023438 7.44210937 -0.94921875 6.54296875 C-0.99741297 4.12955035 -0.7107703 2.29263502 0 0 Z " fill="#D08C57" transform="translate(142,606)"/>
<path d="M0 0 C1.65 0 3.3 0 5 0 C5 0.33 5 0.66 5 1 C3.35 1 1.7 1 0 1 C0 0.67 0 0.34 0 0 Z " fill="#D59D6A" transform="translate(320,286)"/>
<path d="M0 0 C4 1 4 1 4 1 Z " fill="#D79E6B" transform="translate(665,286)"/>
<path d="M0 0 C4 1 4 1 4 1 Z " fill="#D59D6A" transform="translate(457,286)"/>
<path d="M0 0 C3 1 3 1 3 1 Z " fill="#D79D6A" transform="translate(674,286)"/>
<path d="M0 0 C3 1 3 1 3 1 Z " fill="#D79D6B" transform="translate(442,286)"/>
<path d="" fill="#D29C6A" transform="translate(0,0)"/>
<path d="" fill="#D49B6A" transform="translate(0,0)"/>
<path d="M0 0 C2 1 2 1 2 1 Z " fill="#D99F6C" transform="translate(787,286)"/>
<path d="M0 0 C2 1 2 1 2 1 Z " fill="#D69E6B" transform="translate(755,286)"/>
<path d="M0 0 C2 1 2 1 2 1 Z " fill="#D69E6A" transform="translate(715,286)"/>
<path d="M0 0 C2 1 2 1 2 1 Z " fill="#D79D69" transform="translate(659,286)"/>
<path d="M0 0 C2 1 2 1 2 1 Z " fill="#D79E6B" transform="translate(656,286)"/>
<path d="M0 0 C2 1 2 1 2 1 Z " fill="#D79D6A" transform="translate(595,286)"/>
<path d="M0 0 C2 1 2 1 2 1 Z " fill="#D89E6B" transform="translate(592,286)"/>
<path d="M0 0 C2 1 2 1 2 1 Z " fill="#D69E6B" transform="translate(547,286)"/>
<path d="M0 0 C2 1 2 1 2 1 Z " fill="#D89D6B" transform="translate(544,286)"/>
<path d="M0 0 C2 1 2 1 2 1 Z " fill="#D89F6B" transform="translate(539,286)"/>
<path d="M0 0 C2 1 2 1 2 1 Z " fill="#D69E6A" transform="translate(507,286)"/>
<path d="M0 0 C2 1 2 1 2 1 Z " fill="#D89D6B" transform="translate(496,286)"/>
<path d="M0 0 C2 1 2 1 2 1 Z " fill="#D59D6A" transform="translate(475,286)"/>
<path d="M0 0 C2 1 2 1 2 1 Z " fill="#D59C6A" transform="translate(419,286)"/>
<path d="M0 0 C2 1 2 1 2 1 Z " fill="#D69D69" transform="translate(387,286)"/>
<path d="M0 0 C2 1 2 1 2 1 Z " fill="#D79D69" transform="translate(326,286)"/>
<path d="M0 0 C2 1 2 1 2 1 Z " fill="#D59D6C" transform="translate(307,286)"/>
<path d="M0 0 C2 1 2 1 2 1 Z " fill="#D79D6C" transform="translate(304,286)"/>
<path d="M0 0 C2 1 2 1 2 1 Z " fill="#D59D6A" transform="translate(299,286)"/>
<path d="M0 0 C2 1 2 1 2 1 Z " fill="#D69E6C" transform="translate(283,286)"/>
<path d="M0 0 C2 1 2 1 2 1 Z " fill="#D69E6A" transform="translate(275,286)"/>
<path d="M0 0 C2 1 2 1 2 1 Z " fill="#D69F6B" transform="translate(251,286)"/>
<path d="M0 0 C2 1 2 1 2 1 Z " fill="#D59E6B" transform="translate(243,286)"/>
<path d="" fill="#2D2720" transform="translate(0,0)"/>
<path d="" fill="#CD9669" transform="translate(0,0)"/>
<path d="" fill="#D79D6D" transform="translate(0,0)"/>
<path d="" fill="#D69F6E" transform="translate(0,0)"/>
<path d="" fill="#D89E6D" transform="translate(0,0)"/>
<path d="" fill="#D09A6A" transform="translate(0,0)"/>
<path d="" fill="#D09A6A" transform="translate(0,0)"/>
<path d="" fill="#CF9A6A" transform="translate(0,0)"/>
<path d="" fill="#D09B6B" transform="translate(0,0)"/>
<path d="" fill="#CF9969" transform="translate(0,0)"/>
<path d="" fill="#CE9869" transform="translate(0,0)"/>
<path d="" fill="#D09A6A" transform="translate(0,0)"/>
<path d="" fill="#CB976A" transform="translate(0,0)"/>
<path d="" fill="#D6A473" transform="translate(0,0)"/>
<path d="" fill="#CD9667" transform="translate(0,0)"/>
<path d="" fill="#CD9768" transform="translate(0,0)"/>
<path d="" fill="#D59E6D" transform="translate(0,0)"/>
<path d="" fill="#CA9A68" transform="translate(0,0)"/>
<path d="" fill="#CF9869" transform="translate(0,0)"/>
<path d="" fill="#CD996A" transform="translate(0,0)"/>
<path d="" fill="#D29A69" transform="translate(0,0)"/>
<path d="" fill="#D29B69" transform="translate(0,0)"/>
<path d="" fill="#D19B69" transform="translate(0,0)"/>
<path d="" fill="#D39D6C" transform="translate(0,0)"/>
<path d="" fill="#D49B6B" transform="translate(0,0)"/>
<path d="" fill="#D49A6A" transform="translate(0,0)"/>
<path d="" fill="#D29A6B" transform="translate(0,0)"/>
<path d="" fill="#D29B6B" transform="translate(0,0)"/>
<path d="" fill="#D29D6C" transform="translate(0,0)"/>
<path d="" fill="#D39C6A" transform="translate(0,0)"/>
<path d="" fill="#D39B6B" transform="translate(0,0)"/>
<path d="" fill="#D29B6A" transform="translate(0,0)"/>
<path d="" fill="#CB986B" transform="translate(0,0)"/>
<path d="" fill="#D89E6F" transform="translate(0,0)"/>
<path d="" fill="#D59B6C" transform="translate(0,0)"/>
<path d="" fill="#CD996A" transform="translate(0,0)"/>
<path d="" fill="#D59D6C" transform="translate(0,0)"/>
<path d="" fill="#D79E6F" transform="translate(0,0)"/>
<path d="" fill="#D69E6D" transform="translate(0,0)"/>
<path d="" fill="#D79F6D" transform="translate(0,0)"/>
<path d="" fill="#D59C6C" transform="translate(0,0)"/>
<path d="" fill="#D7A06B" transform="translate(0,0)"/>
<path d="" fill="#D79E6A" transform="translate(0,0)"/>
<path d="" fill="#D69E6C" transform="translate(0,0)"/>
<path d="" fill="#D69E6A" transform="translate(0,0)"/>
<path d="" fill="#D79E6C" transform="translate(0,0)"/>
<path d="" fill="#D79D6A" transform="translate(0,0)"/>
<path d="" fill="#D59E6B" transform="translate(0,0)"/>
<path d="" fill="#D89E6B" transform="translate(0,0)"/>
<path d="" fill="#D59D6C" transform="translate(0,0)"/>
<path d="" fill="#D89E6C" transform="translate(0,0)"/>
<path d="" fill="#D79E6A" transform="translate(0,0)"/>
<path d="" fill="#D79D6A" transform="translate(0,0)"/>
<path d="" fill="#D69D6A" transform="translate(0,0)"/>
<path d="" fill="#D79D6B" transform="translate(0,0)"/>
<path d="" fill="#D79E6A" transform="translate(0,0)"/>
<path d="" fill="#D89D6C" transform="translate(0,0)"/>
<path d="" fill="#D79E6B" transform="translate(0,0)"/>
<path d="" fill="#D79E6B" transform="translate(0,0)"/>
<path d="" fill="#D79D6A" transform="translate(0,0)"/>
<path d="" fill="#D79E6B" transform="translate(0,0)"/>
<path d="" fill="#D79E6D" transform="translate(0,0)"/>
<path d="" fill="#D89E6A" transform="translate(0,0)"/>
<path d="" fill="#D89E6B" transform="translate(0,0)"/>
<path d="" fill="#D69D6A" transform="translate(0,0)"/>
<path d="" fill="#D69E6B" transform="translate(0,0)"/>
<path d="" fill="#D79E6A" transform="translate(0,0)"/>
<path d="" fill="#D69E6B" transform="translate(0,0)"/>
<path d="" fill="#D69E6B" transform="translate(0,0)"/>
<path d="" fill="#D79E6A" transform="translate(0,0)"/>
<path d="" fill="#D79D6C" transform="translate(0,0)"/>
<path d="" fill="#D69D6C" transform="translate(0,0)"/>
<path d="" fill="#D69D6A" transform="translate(0,0)"/>
<path d="" fill="#D79E6A" transform="translate(0,0)"/>
<path d="" fill="#D69D6B" transform="translate(0,0)"/>
<path d="" fill="#D69D6B" transform="translate(0,0)"/>
<path d="" fill="#D89F6B" transform="translate(0,0)"/>
<path d="" fill="#D59E6C" transform="translate(0,0)"/>
<path d="" fill="#D69E6C" transform="translate(0,0)"/>
<path d="" fill="#D99E6B" transform="translate(0,0)"/>
<path d="" fill="#D69E6C" transform="translate(0,0)"/>
<path d="" fill="#D69D6B" transform="translate(0,0)"/>
<path d="" fill="#D19A6C" transform="translate(0,0)"/>
<path d="" fill="#CC996D" transform="translate(0,0)"/>
</svg>
