<?xml version="1.0" encoding="UTF-8"?>
<svg version="1.1" xmlns="http://www.w3.org/2000/svg" width="1024" height="1024">
<path d="M0 0 C1.09904755 1.02507319 2.18217439 2.06744195 3.25 3.125 C3.86875 3.71796875 4.4875 4.3109375 5.125 4.921875 C11.16067146 10.80665468 11.16067146 10.80665468 13.25 14.125 C13.25 14.785 13.25 15.445 13.25 16.125 C16.17734916 13.28635839 18.84955269 10.40214435 21.4375 7.25 C30.67065839 -3.38820424 45.20672199 -10.70472683 59.25 -11.875 C67.60479068 -12.30970358 74.18130839 -12.59204051 81.125 -7.5 C83.26180107 -4.41350957 83.30969595 -1.42186975 82.91015625 2.23828125 C82.71292969 3.29402344 82.51570313 4.34976563 82.3125 5.4375 C82.11785156 6.50613281 81.92320312 7.57476562 81.72265625 8.67578125 C81.56667969 9.48402344 81.41070313 10.29226562 81.25 11.125 C80.59 11.125 79.93 11.125 79.25 11.125 C78.87875 12.424375 78.87875 12.424375 78.5 13.75 C73.50647904 27.2325066 61.14400804 37.0238232 48.50024414 42.94824219 C40.90330162 46.36142645 33.46760914 48.64751891 25.25 50.125 C25.58 51.115 25.91 52.105 26.25 53.125 C27.12398438 53.13958252 27.99796875 53.15416504 28.8984375 53.16918945 C56.11078158 53.67371601 81.8788613 55.83991259 108.25 63.125 C109.13187988 63.36669922 110.01375977 63.60839844 110.92236328 63.85742188 C135.55943252 70.81976424 158.65082313 83.07481713 179.25 98.125 C179.88276855 98.58358398 180.51553711 99.04216797 181.16748047 99.51464844 C184.9513167 102.27851222 188.6171792 105.16387263 192.25 108.125 C192.75917969 108.53266602 193.26835938 108.94033203 193.79296875 109.36035156 C202.20275329 116.12451777 209.91481362 123.58392347 217.5625 131.1875 C218.481521 132.09725586 219.40054199 133.00701172 220.34741211 133.94433594 C226.40592873 140.03075686 231.92356803 146.39243778 237.25 153.125 C238.20395419 154.30506994 239.15830434 155.48482005 240.11328125 156.6640625 C250.83753552 170.1762808 260.70616734 184.12985276 269.25 199.125 C269.65460449 199.83269531 270.05920898 200.54039062 270.47607422 201.26953125 C299.52329251 252.28363858 317.54992744 306.57939496 323.25 365.125 C323.32202637 365.85702637 323.39405273 366.58905273 323.46826172 367.34326172 C326.90404535 404.60829959 323.96917043 443.02522413 314.25 479.125 C324.81 479.125 335.37 479.125 346.25 479.125 C346.58 478.465 346.91 477.805 347.25 477.125 C348.12527344 477.29257812 349.00054688 477.46015625 349.90234375 477.6328125 C357.00495552 478.65130023 364.31627012 478.08595755 371.46679688 477.91015625 C372.63404297 477.89597656 373.80128906 477.88179687 375.00390625 477.8671875 C376.05908447 477.8451123 377.1142627 477.82303711 378.20141602 477.80029297 C381.80257736 478.18385544 384.16790886 479.25045607 387.25 481.125 C388.4375 483.5 388.4375 483.5 388.25 486.125 C385.59497675 489.53902393 384.09041331 490.97159942 379.78477478 491.75750732 C378.4270534 491.78655754 377.06858063 491.7883901 375.71069336 491.76855469 C374.95756269 491.77747458 374.20443201 491.78639448 373.42847919 491.79558468 C370.89848978 491.81957848 368.36990425 491.80807905 365.83984375 491.796875 C364.01111554 491.80689229 362.18239843 491.81914554 360.35369873 491.83345032 C356.38930521 491.85990392 352.42526555 491.87085016 348.46078491 491.87039185 C342.13153268 491.87073962 335.80293303 491.91214495 329.47387695 491.95874023 C309.48830047 492.09565169 289.50289885 492.13420966 269.51689231 492.11800694 C258.2201716 492.10897022 246.92369335 492.12694757 235.62701511 492.16440392 C227.87322896 492.18766923 220.12064897 492.17353697 212.3669529 492.13200855 C207.50022324 492.11410656 202.63399686 492.12943237 197.7673111 492.15349388 C195.50244766 492.15787638 193.23750892 492.14853725 190.97277069 492.12432289 C175.34278804 491.65949601 175.34278804 491.65949601 162.22651672 499.16783142 C161.24814095 500.13662987 161.24814095 500.13662987 160.25 501.125 C157.82279272 502.76489157 155.31184098 504.20647422 152.75 505.625 C152.08331299 505.99463867 151.41662598 506.36427734 150.72973633 506.74511719 C126.73356241 519.7327799 96.712415 529.70822431 69.375 522.5 C59.13572093 518.96794099 50.55499409 512.62262393 45.0859375 503.09765625 C43.82671421 500.31441973 43.25 498.19401187 43.25 495.125 C42.095 495.269375 40.94 495.41375 39.75 495.5625 C35.58333333 496.08333333 31.41666667 496.60416667 27.25 497.125 C26.92 496.135 26.59 495.145 26.25 494.125 C25.3425 494.269375 24.435 494.41375 23.5 494.5625 C18.10973874 495.34047585 12.67760412 495.70612086 7.25 496.125 C7.25 496.455 7.25 496.785 7.25 497.125 C5.6 497.125 3.95 497.125 2.25 497.125 C2.25 496.465 2.25 495.805 2.25 495.125 C1.198125 495.310625 0.14625 495.49625 -0.9375 495.6875 C-4.45346518 496.09097141 -6.38341289 495.86400693 -9.75 495.125 C-11.14562106 495.10065777 -12.5418495 495.10240854 -13.9375 495.125 C-17.75 495.125 -17.75 495.125 -19.75 494.125 C-20.08 494.785 -20.41 495.445 -20.75 496.125 C-25.53180276 497.00166384 -29.01137123 497.21852972 -33.75 496.125 C-36.08301986 496.08675377 -38.41711508 496.07925716 -40.75 496.125 C-40.75 496.455 -40.75 496.785 -40.75 497.125 C-43.41666667 497.125 -46.08333333 497.125 -48.75 497.125 C-50.16886094 498.85649926 -50.16886094 498.85649926 -51.4375 501.125 C-58.1046164 511.50874853 -66.54002146 518.19518303 -78.69140625 521.16015625 C-100.31096843 525.84168938 -120.83937158 521.38345269 -140.3125 511.4375 C-141.07997559 511.05198975 -141.84745117 510.66647949 -142.63818359 510.26928711 C-147.28504705 507.81089242 -150.79713062 505.13896735 -154.59423828 501.49487305 C-161.4209366 495.87613409 -167.5420298 495.96796138 -176.05078125 496.28125 C-177.50037287 496.30063399 -178.95002613 496.31581344 -180.39970398 496.32702637 C-184.18488917 496.36670836 -187.96682871 496.4595739 -191.75067139 496.56530762 C-196.35145694 496.68410183 -200.95335446 496.74035802 -205.55515575 496.8052597 C-209.13389182 496.85679239 -212.71163131 496.91750055 -216.28962708 497.00744629 C-217.57503891 497.03657104 -218.86045074 497.0656958 -220.18481445 497.09570312 C-221.31079544 497.12506958 -222.43677643 497.15443604 -223.59687805 497.18469238 C-226.74619818 497.12507197 -229.66152237 496.72348956 -232.75 496.125 C-232.75 496.785 -232.75 497.445 -232.75 498.125 C-234.4 498.125 -236.05 498.125 -237.75 498.125 C-237.75 497.795 -237.75 497.465 -237.75 497.125 C-238.91982422 497.10518066 -240.08964844 497.08536133 -241.29492188 497.06494141 C-245.66361862 496.98847389 -250.03200004 496.89982197 -254.40039062 496.80761719 C-256.28574364 496.76949662 -258.17116521 496.73461519 -260.05664062 496.703125 C-262.77759179 496.65710468 -265.49807793 496.59917386 -268.21875 496.5390625 C-269.05241089 496.52751129 -269.88607178 496.51596008 -270.74499512 496.50405884 C-276.03473563 496.37271404 -280.65926704 495.58168564 -285.75 494.125 C-286.12069563 486.58752212 -286.12069563 486.58752212 -284.47010803 484.52806091 C-281.4375823 482.0544847 -277.50817037 482.55699763 -273.74609375 482.47265625 C-272.2683976 482.42420311 -272.2683976 482.42420311 -270.760849 482.37477112 C-267.0908987 482.26697762 -263.4208889 482.1907055 -259.75 482.125 C-259.00334328 482.1115731 -258.25668655 482.09814621 -257.48740387 482.08431244 C-244.89061619 481.86407068 -232.29305401 481.72297127 -219.69506836 481.59277344 C-214.84030155 481.54178749 -209.98558356 481.48651143 -205.13085938 481.43164062 C-195.67061499 481.32532578 -186.21032751 481.22362086 -176.75 481.125 C-177.23084045 480.30257309 -177.71168091 479.48014618 -178.20709229 478.63279724 C-179.15307281 477.01329918 -179.15307281 477.01329918 -180.11816406 475.36108398 C-181.05598724 473.75619362 -181.05598724 473.75619362 -182.01275635 472.11888123 C-191.7218789 455.38665158 -196.82833969 438.43090669 -192.75 419.125 C-191.08286663 413.20013876 -188.30670945 407.73335734 -185.35546875 402.34960938 C-182.52267901 396.86695912 -182.51022756 393.09925718 -183.75 387.125 C-183.93143555 386.18970459 -184.11287109 385.25440918 -184.29980469 384.29077148 C-184.9138624 381.24742827 -185.5748757 378.21784363 -186.25 375.1875 C-186.47558594 374.14787109 -186.70117188 373.10824219 -186.93359375 372.03710938 C-187.93358719 366.94309372 -187.93358719 366.94309372 -189.75 362.125 C-189.95888708 360.12896794 -190.11775477 358.12757059 -190.25 356.125 C-190.51129183 352.24294991 -190.82432723 348.37947417 -191.2421875 344.51171875 C-193.51485845 322.11872856 -193.41323779 299.25658623 -190.41088867 276.94433594 C-189.69593681 271.44886078 -189.65352884 266.09626426 -189.875 260.56640625 C-189.75 258.125 -189.75 258.125 -187.75 256.125 C-187.18222829 254.21189989 -186.70291315 252.27216559 -186.26953125 250.32421875 C-185.99633057 249.12966064 -185.72312988 247.93510254 -185.44165039 246.7043457 C-185.15153076 245.42003662 -184.86141113 244.13572754 -184.5625 242.8125 C-180.60784131 225.81650014 -175.68446787 209.53916428 -168.23852539 193.71801758 C-166.28221676 189.60261892 -166.28221676 189.60261892 -165.75 185.125 C-165.09 185.125 -164.43 185.125 -163.75 185.125 C-163.51925781 184.31417969 -163.28851563 183.50335938 -163.05078125 182.66796875 C-161.44382541 178.291065 -159.28781421 174.45343031 -156.9375 170.4375 C-156.45466553 169.61096924 -155.97183105 168.78443848 -155.47436523 167.93286133 C-147.46330966 154.40884879 -138.68861016 141.64100869 -128.2109375 129.91015625 C-125.78830265 127.26190261 -125.78830265 127.26190261 -124.0390625 124.74609375 C-123.61367188 124.21113281 -123.18828125 123.67617188 -122.75 123.125 C-122.09 123.125 -121.43 123.125 -120.75 123.125 C-120.75 122.465 -120.75 121.805 -120.75 121.125 C-119.13901919 119.40444881 -117.45907194 117.74815392 -115.75 116.125 C-114.80125 115.21363281 -113.8525 114.30226563 -112.875 113.36328125 C-85.06230086 87.16749592 -52.18907543 69.89345567 -15.49560547 59.66235352 C-13.66608597 59.15149005 -13.66608597 59.15149005 -11.75 58.125 C-8.05576047 57.6461171 -4.36843883 57.18442017 -0.66015625 56.828125 C2.42693976 56.45393154 5.28012568 56.05224583 8.25 55.125 C10.62734782 52.21913157 10.62734782 52.21913157 11.25 49.125 C9.455625 49.2178125 9.455625 49.2178125 7.625 49.3125 C-5.80748657 49.27025948 -18.7331212 44.87616308 -29.09375 36.359375 C-30.84598642 34.91891793 -30.84598642 34.91891793 -33.75 34.125 C-40.35247495 27.0292367 -45.53280367 17.78135035 -49.75 9.125 C-50.74 8.135 -50.74 8.135 -51.75 7.125 C-51.86122817 2.4070717 -51.09904859 -2.76416497 -48.75 -6.875 C-37.23584907 -18.38915093 -10.90724851 -9.12995132 0 0 Z M-175.75 481.125 C-174.75 483.125 -174.75 483.125 -174.75 483.125 Z " fill="#FABE88" transform="translate(461.75,237.875)"/>
<path d="M0 0 C1.09904755 1.02507319 2.18217439 2.06744195 3.25 3.125 C3.86875 3.71796875 4.4875 4.3109375 5.125 4.921875 C11.16067146 10.80665468 11.16067146 10.80665468 13.25 14.125 C13.25 14.785 13.25 15.445 13.25 16.125 C16.17734916 13.28635839 18.84955269 10.40214435 21.4375 7.25 C30.67065839 -3.38820424 45.20672199 -10.70472683 59.25 -11.875 C67.60479068 -12.30970358 74.18130839 -12.59204051 81.125 -7.5 C83.26180107 -4.41350957 83.30969595 -1.42186975 82.91015625 2.23828125 C82.71292969 3.29402344 82.51570313 4.34976563 82.3125 5.4375 C82.11785156 6.50613281 81.92320312 7.57476562 81.72265625 8.67578125 C81.56667969 9.48402344 81.41070313 10.29226562 81.25 11.125 C80.59 11.125 79.93 11.125 79.25 11.125 C78.87875 12.424375 78.87875 12.424375 78.5 13.75 C73.50647904 27.2325066 61.14400804 37.0238232 48.50024414 42.94824219 C40.90330162 46.36142645 33.46760914 48.64751891 25.25 50.125 C25.58 51.115 25.91 52.105 26.25 53.125 C27.12398438 53.13958252 27.99796875 53.15416504 28.8984375 53.16918945 C56.11078158 53.67371601 81.8788613 55.83991259 108.25 63.125 C109.13187988 63.36669922 110.01375977 63.60839844 110.92236328 63.85742188 C135.55943252 70.81976424 158.65082313 83.07481713 179.25 98.125 C179.88276855 98.58358398 180.51553711 99.04216797 181.16748047 99.51464844 C184.9513167 102.27851222 188.6171792 105.16387263 192.25 108.125 C192.75917969 108.53266602 193.26835938 108.94033203 193.79296875 109.36035156 C202.20275329 116.12451777 209.91481362 123.58392347 217.5625 131.1875 C218.481521 132.09725586 219.40054199 133.00701172 220.34741211 133.94433594 C226.40592873 140.03075686 231.92356803 146.39243778 237.25 153.125 C238.20395419 154.30506994 239.15830434 155.48482005 240.11328125 156.6640625 C250.83753552 170.1762808 260.70616734 184.12985276 269.25 199.125 C269.65460449 199.83269531 270.05920898 200.54039062 270.47607422 201.26953125 C299.52329251 252.28363858 317.54992744 306.57939496 323.25 365.125 C323.32202637 365.85702637 323.39405273 366.58905273 323.46826172 367.34326172 C326.90404535 404.60829959 323.96917043 443.02522413 314.25 479.125 C324.81 479.125 335.37 479.125 346.25 479.125 C346.58 478.465 346.91 477.805 347.25 477.125 C348.12527344 477.29257812 349.00054688 477.46015625 349.90234375 477.6328125 C357.00495552 478.65130023 364.31627012 478.08595755 371.46679688 477.91015625 C372.63404297 477.89597656 373.80128906 477.88179687 375.00390625 477.8671875 C376.05908447 477.8451123 377.1142627 477.82303711 378.20141602 477.80029297 C381.80257736 478.18385544 384.16790886 479.25045607 387.25 481.125 C388.4375 483.5 388.4375 483.5 388.25 486.125 C385.59497675 489.53902393 384.09041331 490.97159942 379.78477478 491.75750732 C378.4270534 491.78655754 377.06858063 491.7883901 375.71069336 491.76855469 C374.95756269 491.77747458 374.20443201 491.78639448 373.42847919 491.79558468 C370.89848978 491.81957848 368.36990425 491.80807905 365.83984375 491.796875 C364.01111554 491.80689229 362.18239843 491.81914554 360.35369873 491.83345032 C356.38930521 491.85990392 352.42526555 491.87085016 348.46078491 491.87039185 C342.13153268 491.87073962 335.80293303 491.91214495 329.47387695 491.95874023 C309.48830047 492.09565169 289.50289885 492.13420966 269.51689231 492.11800694 C258.2201716 492.10897022 246.92369335 492.12694757 235.62701511 492.16440392 C227.87322896 492.18766923 220.12064897 492.17353697 212.3669529 492.13200855 C207.50022324 492.11410656 202.63399686 492.12943237 197.7673111 492.15349388 C195.50244766 492.15787638 193.23750892 492.14853725 190.97277069 492.12432289 C175.34278804 491.65949601 175.34278804 491.65949601 162.22651672 499.16783142 C161.24814095 500.13662987 161.24814095 500.13662987 160.25 501.125 C157.82279272 502.76489157 155.31184098 504.20647422 152.75 505.625 C152.08331299 505.99463867 151.41662598 506.36427734 150.72973633 506.74511719 C126.73356241 519.7327799 96.712415 529.70822431 69.375 522.5 C59.13572093 518.96794099 50.55499409 512.62262393 45.0859375 503.09765625 C43.82671421 500.31441973 43.25 498.19401187 43.25 495.125 C42.095 495.269375 40.94 495.41375 39.75 495.5625 C35.58333333 496.08333333 31.41666667 496.60416667 27.25 497.125 C26.92 496.135 26.59 495.145 26.25 494.125 C25.3425 494.269375 24.435 494.41375 23.5 494.5625 C18.10973874 495.34047585 12.67760412 495.70612086 7.25 496.125 C7.25 496.455 7.25 496.785 7.25 497.125 C5.6 497.125 3.95 497.125 2.25 497.125 C2.25 496.465 2.25 495.805 2.25 495.125 C1.198125 495.310625 0.14625 495.49625 -0.9375 495.6875 C-4.45346518 496.09097141 -6.38341289 495.86400693 -9.75 495.125 C-11.14562106 495.10065777 -12.5418495 495.10240854 -13.9375 495.125 C-17.75 495.125 -17.75 495.125 -19.75 494.125 C-20.08 494.785 -20.41 495.445 -20.75 496.125 C-25.53180276 497.00166384 -29.01137123 497.21852972 -33.75 496.125 C-36.08301986 496.08675377 -38.41711508 496.07925716 -40.75 496.125 C-40.75 496.455 -40.75 496.785 -40.75 497.125 C-43.41666667 497.125 -46.08333333 497.125 -48.75 497.125 C-50.16886094 498.85649926 -50.16886094 498.85649926 -51.4375 501.125 C-58.1046164 511.50874853 -66.54002146 518.19518303 -78.69140625 521.16015625 C-100.31096843 525.84168938 -120.83937158 521.38345269 -140.3125 511.4375 C-141.07997559 511.05198975 -141.84745117 510.66647949 -142.63818359 510.26928711 C-147.28504705 507.81089242 -150.79713062 505.13896735 -154.59423828 501.49487305 C-161.4209366 495.87613409 -167.5420298 495.96796138 -176.05078125 496.28125 C-177.50037287 496.30063399 -178.95002613 496.31581344 -180.39970398 496.32702637 C-184.18488917 496.36670836 -187.96682871 496.4595739 -191.75067139 496.56530762 C-196.35145694 496.68410183 -200.95335446 496.74035802 -205.55515575 496.8052597 C-209.13389182 496.85679239 -212.71163131 496.91750055 -216.28962708 497.00744629 C-217.57503891 497.03657104 -218.86045074 497.0656958 -220.18481445 497.09570312 C-221.31079544 497.12506958 -222.43677643 497.15443604 -223.59687805 497.18469238 C-226.74619818 497.12507197 -229.66152237 496.72348956 -232.75 496.125 C-232.75 496.785 -232.75 497.445 -232.75 498.125 C-234.4 498.125 -236.05 498.125 -237.75 498.125 C-237.75 497.795 -237.75 497.465 -237.75 497.125 C-238.91982422 497.10518066 -240.08964844 497.08536133 -241.29492188 497.06494141 C-245.66361862 496.98847389 -250.03200004 496.89982197 -254.40039062 496.80761719 C-256.28574364 496.76949662 -258.17116521 496.73461519 -260.05664062 496.703125 C-262.77759179 496.65710468 -265.49807793 496.59917386 -268.21875 496.5390625 C-269.05241089 496.52751129 -269.88607178 496.51596008 -270.74499512 496.50405884 C-276.03473563 496.37271404 -280.65926704 495.58168564 -285.75 494.125 C-286.12069563 486.58752212 -286.12069563 486.58752212 -284.47010803 484.52806091 C-281.4375823 482.0544847 -277.50817037 482.55699763 -273.74609375 482.47265625 C-272.2683976 482.42420311 -272.2683976 482.42420311 -270.760849 482.37477112 C-267.0908987 482.26697762 -263.4208889 482.1907055 -259.75 482.125 C-259.00334328 482.1115731 -258.25668655 482.09814621 -257.48740387 482.08431244 C-244.89061619 481.86407068 -232.29305401 481.72297127 -219.69506836 481.59277344 C-214.84030155 481.54178749 -209.98558356 481.48651143 -205.13085938 481.43164062 C-195.67061499 481.32532578 -186.21032751 481.22362086 -176.75 481.125 C-177.23084045 480.30257309 -177.71168091 479.48014618 -178.20709229 478.63279724 C-179.15307281 477.01329918 -179.15307281 477.01329918 -180.11816406 475.36108398 C-181.05598724 473.75619362 -181.05598724 473.75619362 -182.01275635 472.11888123 C-191.7218789 455.38665158 -196.82833969 438.43090669 -192.75 419.125 C-191.08286663 413.20013876 -188.30670945 407.73335734 -185.35546875 402.34960938 C-182.52267901 396.86695912 -182.51022756 393.09925718 -183.75 387.125 C-183.93143555 386.18970459 -184.11287109 385.25440918 -184.29980469 384.29077148 C-184.9138624 381.24742827 -185.5748757 378.21784363 -186.25 375.1875 C-186.47558594 374.14787109 -186.70117188 373.10824219 -186.93359375 372.03710938 C-187.93358719 366.94309372 -187.93358719 366.94309372 -189.75 362.125 C-189.95888708 360.12896794 -190.11775477 358.12757059 -190.25 356.125 C-190.51129183 352.24294991 -190.82432723 348.37947417 -191.2421875 344.51171875 C-193.51485845 322.11872856 -193.41323779 299.25658623 -190.41088867 276.94433594 C-189.69593681 271.44886078 -189.65352884 266.09626426 -189.875 260.56640625 C-189.75 258.125 -189.75 258.125 -187.75 256.125 C-187.18222829 254.21189989 -186.70291315 252.27216559 -186.26953125 250.32421875 C-185.99633057 249.12966064 -185.72312988 247.93510254 -185.44165039 246.7043457 C-185.15153076 245.42003662 -184.86141113 244.13572754 -184.5625 242.8125 C-180.60784131 225.81650014 -175.68446787 209.53916428 -168.23852539 193.71801758 C-166.28221676 189.60261892 -166.28221676 189.60261892 -165.75 185.125 C-165.09 185.125 -164.43 185.125 -163.75 185.125 C-163.51925781 184.31417969 -163.28851563 183.50335938 -163.05078125 182.66796875 C-161.44382541 178.291065 -159.28781421 174.45343031 -156.9375 170.4375 C-156.45466553 169.61096924 -155.97183105 168.78443848 -155.47436523 167.93286133 C-147.46330966 154.40884879 -138.68861016 141.64100869 -128.2109375 129.91015625 C-125.78830265 127.26190261 -125.78830265 127.26190261 -124.0390625 124.74609375 C-123.61367188 124.21113281 -123.18828125 123.67617188 -122.75 123.125 C-122.09 123.125 -121.43 123.125 -120.75 123.125 C-120.75 122.465 -120.75 121.805 -120.75 121.125 C-119.13901919 119.40444881 -117.45907194 117.74815392 -115.75 116.125 C-114.80125 115.21363281 -113.8525 114.30226563 -112.875 113.36328125 C-85.06230086 87.16749592 -52.18907543 69.89345567 -15.49560547 59.66235352 C-13.66608597 59.15149005 -13.66608597 59.15149005 -11.75 58.125 C-8.05576047 57.6461171 -4.36843883 57.18442017 -0.66015625 56.828125 C2.42693976 56.45393154 5.28012568 56.05224583 8.25 55.125 C10.62734782 52.21913157 10.62734782 52.21913157 11.25 49.125 C9.455625 49.2178125 9.455625 49.2178125 7.625 49.3125 C-5.80748657 49.27025948 -18.7331212 44.87616308 -29.09375 36.359375 C-30.84598642 34.91891793 -30.84598642 34.91891793 -33.75 34.125 C-40.35247495 27.0292367 -45.53280367 17.78135035 -49.75 9.125 C-50.74 8.135 -50.74 8.135 -51.75 7.125 C-51.86122817 2.4070717 -51.09904859 -2.76416497 -48.75 -6.875 C-37.23584907 -18.38915093 -10.90724851 -9.12995132 0 0 Z M-15.9375 72.875 C-16.83927979 73.13394043 -17.74105957 73.39288086 -18.67016602 73.65966797 C-21.37316731 74.45309216 -24.06291428 75.27936425 -26.75 76.125 C-27.9575293 76.50350098 -27.9575293 76.50350098 -29.18945312 76.88964844 C-48.49911725 83.10489658 -66.78761491 92.60589904 -82.75 105.125 C-83.64589844 105.81207031 -84.54179687 106.49914062 -85.46484375 107.20703125 C-100.77058513 119.16390472 -114.83032782 132.76632963 -126.42773438 148.35839844 C-127.74866065 150.12321058 -129.09781837 151.86306486 -130.453125 153.6015625 C-155.52026175 186.19825221 -169.56765051 226.16408062 -176.625 266.3125 C-176.82834961 267.46903076 -177.03169922 268.62556152 -177.24121094 269.81713867 C-179.56309975 283.88227187 -179.96025005 297.96657845 -179.9375 312.1875 C-179.93656342 312.95223633 -179.93562683 313.71697266 -179.93466187 314.50488281 C-179.8718923 338.28186888 -177.74864974 362.04804947 -171.08984375 384.98828125 C-169.03348098 392.39627954 -169.23186267 396.99660453 -173 403.8125 C-181.23220784 419.25256474 -183.84677452 433.15370637 -179.0625 450.10546875 C-171.87499877 473.3160268 -152.23538815 490.7001029 -131.49609375 501.87890625 C-119.26305039 507.86784404 -107.90068988 510.47042069 -94.375 510.625 C-93.3646167 510.64353027 -92.3542334 510.66206055 -91.31323242 510.68115234 C-81.68150204 510.60016673 -73.10865448 507.38085056 -66.12109375 500.52734375 C-61.38503797 495.33480067 -59.20886072 490.52531771 -59.44140625 483.31640625 C-61.62212551 467.83053909 -74.05905813 455.18207372 -85.875 446.125 C-94.99598775 438.99743568 -101.96958489 429.83120626 -103.625 418.1875 C-103.8671875 415.97265625 -103.8671875 415.97265625 -103.75 414.125 C-101.75 412.125 -101.75 412.125 -98.625 412 C-97.67625 412.04125 -96.7275 412.0825 -95.75 412.125 C-95.193125 413.259375 -94.63625 414.39375 -94.0625 415.5625 C-93.68867188 416.29726563 -93.31484375 417.03203125 -92.9296875 417.7890625 C-92.18097593 419.27161057 -91.45416496 420.76558769 -90.7578125 422.2734375 C-86.02991108 431.83277103 -77.53069897 438.66722737 -69.58203125 445.53125 C-58.18201594 455.4485341 -52.49082134 466.90253598 -47.75 481.125 C-17.72 481.125 12.31 481.125 43.25 481.125 C43.91 478.155 44.57 475.185 45.25 472.125 C51.83716222 455.6373724 65.88776517 443.68551902 79.6875 433.1875 C90.79034599 424.72458168 99.98247943 416.5140014 105.8125 403.5625 C107.84009765 399.28574602 107.84009765 399.28574602 111.4375 397.875 C114.25 398.125 114.25 398.125 116.25 400.125 C116.25 412.56597609 109.32329096 422.18534844 100.875 430.75 C95.49484596 435.92322504 89.51686064 440.37369812 83.546875 444.8359375 C70.87013793 454.36537644 57.62071647 465.87333131 54.25 482.125 C53.39157163 489.85085529 55.65576064 496.31667953 60.01953125 502.72265625 C62.55058347 505.44874577 64.84202363 506.77187135 68.1875 508.375 C69.20714844 508.87515625 70.22679687 509.3753125 71.27734375 509.890625 C87.72543147 516.72057995 110.20568532 510.99581072 126.10180664 504.81860352 C141.51977506 498.43019764 155.88668307 490.08253949 169.25 480.125 C169.8486084 479.68188477 170.4472168 479.23876953 171.06396484 478.78222656 C191.17722404 463.91551689 191.17722404 463.91551689 205.75 444.0625 C206.245 443.423125 206.74 442.78375 207.25 442.125 C210.875 441.75 210.875 441.75 214.25 442.125 C215.25 443.125 215.25 443.125 215.5625 446.3125 C214.58269874 458.26607541 199.41974027 469.36329848 190.82421875 476.671875 C190.30472656 477.15140625 189.78523438 477.6309375 189.25 478.125 C189.25 478.455 189.25 478.785 189.25 479.125 C225.88 479.125 262.51 479.125 300.25 479.125 C302.608075 472.83679999 304.36574499 467.10587194 305.8125 460.625 C306.02938477 459.66029785 306.24626953 458.6955957 306.46972656 457.70166016 C308.25413003 449.5391651 309.48304424 441.44480271 310.25 433.125 C310.33141235 432.26340775 310.41282471 431.40181549 310.4967041 430.51411438 C311.1147157 423.62862637 311.4212623 416.80610715 311.453125 409.89453125 C311.46009399 408.86884033 311.46706299 407.84314941 311.47424316 406.78637695 C311.49150774 403.50337556 311.49796064 400.22054487 311.5 396.9375 C311.50100708 395.81628754 311.50201416 394.69507507 311.50305176 393.53988647 C311.49386383 378.44102086 311.28664453 363.63631036 308.69873047 348.72167969 C308.23548655 346.04101467 307.83500084 343.35577243 307.44140625 340.6640625 C297.22515399 273.76635564 267.50971226 203.41977322 220.69921875 153.75 C218.72784862 151.63714398 216.82923231 149.49473571 214.94140625 147.30859375 C205.64859641 136.64717238 195.46835098 126.73821867 184.25 118.125 C182.74759766 116.93197266 182.74759766 116.93197266 181.21484375 115.71484375 C152.32531586 92.88021999 119.60080821 76.87681001 83.25 70.125 C82.55304016 69.9947644 81.85608032 69.86452881 81.13800049 69.73034668 C68.49069908 67.42985749 56.14103565 66.65007522 43.29638672 66.73388672 C40.38331031 66.74995416 37.47162843 66.73393438 34.55859375 66.71484375 C17.57662399 66.69486171 0.41950098 68.03033101 -15.9375 72.875 Z M-175.75 481.125 C-174.75 483.125 -174.75 483.125 -174.75 483.125 Z " fill="#64493F" transform="translate(461.75,237.875)"/>
<path d="M0 0 C4.75 0.75 4.75 0.75 7 3 C7.76795898 3.28045166 8.53591797 3.56090332 9.32714844 3.84985352 C12.52189289 5.22457411 14.31430745 6.94184988 16.765625 9.40234375 C17.65636719 10.29373047 18.54710937 11.18511719 19.46484375 12.10351562 C20.38394531 13.03873047 21.30304687 13.97394531 22.25 14.9375 C23.60544922 16.28811523 23.60544922 16.28811523 24.98828125 17.66601562 C30.22795952 22.94715897 35.10673278 28.38527427 39.74804688 34.19824219 C42.09381011 37.11671345 44.52016834 39.95477018 46.953125 42.80078125 C52.3635672 49.29017843 57.09931222 56.14071728 61.75 63.1875 C62.17931824 63.83451874 62.60863647 64.48153748 63.05096436 65.14816284 C86.28483123 100.24039022 104.14795187 138.29032866 115 179 C115.24443848 179.91410645 115.48887695 180.82821289 115.74072266 181.77001953 C118.54175053 192.43708436 120.69475426 203.2179997 122.6875 214.0625 C122.89012451 215.14909912 123.09274902 216.23569824 123.30151367 217.35522461 C126.38069049 234.74480184 127.33072881 251.96969165 127.26074219 269.60766602 C127.25004463 272.79918559 127.26069795 275.99013817 127.2734375 279.18164062 C127.28746225 297.42249825 126.77474161 315.87607664 122.5 333.6875 C122.18095703 335.12706055 122.18095703 335.12706055 121.85546875 336.59570312 C120.91663673 340.71101281 119.94052987 344.24725736 118 348 C117.01 350.31 116.02 352.62 115 355 C89.92 355 64.84 355 39 355 C40.55772652 351.10568369 42.21903248 347.67567391 44.1875 344 C80.05238196 273.98304443 73.09376229 172.25706986 50.90380859 99.40087891 C48.4690356 91.85922421 45.79154404 84.41604156 43 77 C42.71769531 76.2363916 42.43539062 75.4727832 42.14453125 74.68603516 C38.4617131 64.76626165 33.87254991 55.37631648 29 46 C28.66709961 45.34966797 28.33419922 44.69933594 27.99121094 44.02929688 C20.69834846 29.78575901 11.98221589 16.59242151 1.734375 4.27734375 C0 2 0 2 0 0 Z " fill="#F4A775" transform="translate(646,361)"/>
<path d="M0 0 C1.75780731 0.01006502 3.51562031 0.01918455 5.2734375 0.02734375 C9.51576925 0.04904353 13.75781894 0.08337232 18 0.125 C15.18890073 1.66158557 12.7221063 2.50924892 9.5703125 3.0546875 C8.70390137 3.2079248 7.83749023 3.36116211 6.94482422 3.51904297 C5.54901123 3.7571167 5.54901123 3.7571167 4.125 4 C3.15191895 4.17289551 2.17883789 4.34579102 1.17626953 4.52392578 C-3.75800648 5.39934905 -8.69684924 6.2425906 -13.640625 7.0625 C-39.17920926 11.3718244 -63.1325015 19.92632847 -86.01513672 32.07275391 C-87.37990261 32.79626449 -88.74899652 33.51165114 -90.12158203 34.22021484 C-118.00713387 48.64377614 -145.55073249 69.82315685 -161.328125 97.43359375 C-163.42058021 100.80205553 -165.79532534 103.90342229 -168.1875 107.0625 C-181.94826638 125.46905558 -191.01044708 145.71682163 -198.3125 167.375 C-198.73345947 168.61805908 -199.15441895 169.86111816 -199.58813477 171.1418457 C-204.28252886 185.41216108 -206.67310325 199.79969103 -208.73486328 214.63110352 C-209.12684315 217.45075848 -209.52568374 220.2693771 -209.92578125 223.08789062 C-210.18268513 224.9087987 -210.43920898 226.72976044 -210.6953125 228.55078125 C-210.81198273 229.37910965 -210.92865295 230.20743805 -211.04885864 231.06086731 C-211.79109307 236.40744081 -212.4243634 241.7578772 -213 247.125 C-213.33 247.125 -213.66 247.125 -214 247.125 C-214.33 243.495 -214.66 239.865 -215 236.125 C-215.33 236.125 -215.66 236.125 -216 236.125 C-217.59136137 203.00999393 -209.51612616 169.67590946 -197 139.125 C-196.69481445 138.37847168 -196.38962891 137.63194336 -196.07519531 136.86279297 C-189.39022652 120.73920244 -181.14842242 105.34374293 -171 91.125 C-170.57525391 90.52510254 -170.15050781 89.92520508 -169.71289062 89.30712891 C-162.71212394 79.47988907 -155.10363409 70.50094125 -146.6875 61.859375 C-145.09197277 60.21952757 -143.51375075 58.56459714 -141.9375 56.90625 C-134.85981821 49.54639761 -127.24254007 43.14389792 -119 37.125 C-118.43506836 36.71040527 -117.87013672 36.29581055 -117.28808594 35.86865234 C-93.39565437 18.57645359 -65.16929337 6.73819026 -36 2.125 C-34.8867334 1.94839844 -33.7734668 1.77179688 -32.62646484 1.58984375 C-21.71726233 0.03665989 -11.00385315 -0.11134101 0 0 Z " fill="#FCDBB6" transform="translate(499,304.875)"/>
<path d="M0 0 C2.30461651 2.07415486 2.8947981 3.47399051 3.5 6.5 C3 9 3 9 0.875 11.125 C-6.6 16 -6.6 16 -10 16 C-9.61328125 16.52207031 -9.2265625 17.04414063 -8.828125 17.58203125 C-2.0742603 27.12771626 1.29181579 36.21218091 0 48 C-1.23572357 54.99507806 -4.44535159 60.52598319 -10 65 C-16.15793006 68.30221325 -23.02904124 70.36519643 -30 69 C-37.24743331 66.57674418 -43.0318826 62.59593983 -47 56 C-49.60995671 49.56263726 -51.35642211 42.91846227 -52 36 C-52.99 36.495 -52.99 36.495 -54 37 C-60.22082585 37.4524237 -60.22082585 37.4524237 -62.9375 35.875 C-64.62432532 32.89824943 -64.73887807 31.35853668 -64 28 C-59.09707566 23.92490415 -52.84053612 21.36309661 -47.07421875 18.75 C-46.24598099 18.3694043 -45.41774323 17.98880859 -44.56440735 17.59667969 C-41.94108604 16.39265668 -39.31438818 15.19621766 -36.6875 14 C-34.93792288 13.19841448 -33.188572 12.39633495 -31.43945312 11.59375 C-28.10003854 10.06187581 -24.75711555 8.53807517 -21.41162109 7.01953125 C-18.76749744 5.81671752 -16.14618157 4.58768751 -13.52978516 3.32421875 C-12.57765137 2.86660156 -11.62551758 2.40898437 -10.64453125 1.9375 C-9.87085205 1.55464844 -9.09717285 1.17179687 -8.30004883 0.77734375 C-5.40604043 -0.20073955 -3.03415381 -0.24317253 0 0 Z " fill="#613B2A" transform="translate(555,469)"/>
<path d="M0 0 C1.2257373 0.4441626 2.45147461 0.8883252 3.71435547 1.34594727 C7.48180594 2.71578779 11.24151029 4.10575342 15 5.5 C16.16176758 5.93038574 17.32353516 6.36077148 18.52050781 6.80419922 C21.72776183 8.0007481 24.92777781 9.21442912 28.125 10.4375 C29.09566406 10.80230469 30.06632812 11.16710937 31.06640625 11.54296875 C31.95457031 11.8884375 32.84273438 12.23390625 33.7578125 12.58984375 C34.5327002 12.88753662 35.30758789 13.18522949 36.10595703 13.49194336 C38 14.5 38 14.5 40 17.5 C40.34507474 20.26059793 40.35198412 21.86202878 39 24.3125 C35.76011038 26.23618446 32.7174181 25.68282384 29 25.5 C29.04640625 26.31082031 29.0928125 27.12164062 29.140625 27.95703125 C29.47919775 38.34395956 27.65260933 47.23463689 21 55.5 C16.13784712 60.22709307 10.36228562 62.57148007 3.625 63 C-3.25729485 62.73804414 -8.88626936 59.42992798 -13.875 54.875 C-18.86589324 46.94828721 -21.29164752 38.86444451 -20 29.5 C-18.30854645 22.62199755 -15.79767647 16.46777731 -12 10.5 C-12.77085937 10.24605469 -13.54171875 9.99210937 -14.3359375 9.73046875 C-15.33882813 9.38628906 -16.34171875 9.04210937 -17.375 8.6875 C-18.37273437 8.35105469 -19.37046875 8.01460938 -20.3984375 7.66796875 C-23 6.5 -23 6.5 -25 3.5 C-24.85899852 0.11596451 -24.57097897 -1.81921738 -22.375 -4.4375 C-15.60489707 -7.46623026 -6.40917525 -2.34149581 0 0 Z " fill="#613C2A" transform="translate(375,482.5)"/>
<path d="M0 0 C4.73914011 2.82878906 8.91161656 5.9431039 11.015625 11.203125 C11.69002728 16.16539359 11.6147252 19.98188229 9.390625 24.515625 C3.16047186 31.56553514 -4.39839008 36.45128305 -13.984375 37.203125 C-24.29742957 37.79582929 -32.69381395 36.79788947 -40.984375 30.203125 C-44.6649542 26.84259617 -46.35258044 24.31577476 -46.734375 19.390625 C-46.37119375 12.09398353 -41.59045547 7.74062441 -36.609375 2.890625 C-35.743125 2.33375 -34.876875 1.776875 -33.984375 1.203125 C-33.41976562 0.83316406 -32.85515625 0.46320312 -32.2734375 0.08203125 C-22.96528022 -5.07133552 -9.44306227 -4.56093484 0 0 Z " fill="#FB9174" transform="translate(614.984375,537.796875)"/>
<path d="M0 0 C1.85772162 0.08984301 3.71247985 0.24611861 5.5625 0.4375 C6.57441406 0.53933594 7.58632813 0.64117188 8.62890625 0.74609375 C9.41136719 0.82988281 10.19382812 0.91367187 11 1 C11 1.33 11 1.66 11 2 C10.22785156 2.08765625 9.45570313 2.1753125 8.66015625 2.265625 C5.95877561 2.74471985 5.95877561 2.74471985 4.62109375 4.609375 C4.23050781 5.31578125 3.83992187 6.0221875 3.4375 6.75 C-3.31882183 17.62941054 -12.92077967 26.25960428 -23 34 C-23.99515625 34.79921875 -24.9903125 35.5984375 -26.015625 36.421875 C-53.44645085 58.3229472 -86.17731038 74.99654862 -122 73 C-125.96684932 72.41192261 -127.26746514 71.84183625 -130 69 C-131.97620986 67.95377125 -133.9737129 66.94560065 -136 66 C-136 65.67 -136 65.34 -136 65 C-134.72769531 64.91363281 -133.45539062 64.82726562 -132.14453125 64.73828125 C-87.01861312 61.29838311 -45.39054148 40.11983054 -12 10 C-9.93511039 8.26784448 -7.84363491 6.57275725 -5.75 4.875 C-2.78883171 2.53459787 -2.78883171 2.53459787 0 0 Z " fill="#F3A976" transform="translate(663,677)"/>
<path d="M0 0 C2.91299751 2.5193492 4.55818622 4.13412942 5 8 C5.144375 9.0725 5.28875 10.145 5.4375 11.25 C4.74889864 17.15229741 1.65181079 20.87855137 -2.93359375 24.546875 C-12.49068308 30.88100828 -23.87289238 31.40150592 -35 30 C-40.99447274 28.19668351 -45.38232738 25.65443791 -49.75 21.1875 C-51.64555016 16.3538471 -52.21012388 11.99186405 -50.22265625 7.078125 C-46.01440388 0.30897884 -38.25866596 -3.32006207 -31 -6 C-19.96859684 -8.50713708 -9.05524555 -7.11483579 0 0 Z " fill="#FB9174" transform="translate(344,553)"/>
<path d="M0 0 C1.25425781 0.00902344 2.50851562 0.01804688 3.80078125 0.02734375 C4.75339844 0.03894531 5.70601562 0.05054688 6.6875 0.0625 C2.48049432 12.82190538 -4.67203043 22.23342452 -16.3125 29.0625 C-25.31146643 33.57349084 -34.20986883 36.4923992 -44.3125 36.0625 C-43.95928126 26.52559412 -38.9022825 18.80205029 -32.3125 12.0625 C-22.52765838 4.09809403 -12.64106374 -0.11814078 0 0 Z " fill="#AFC73C" transform="translate(526.3125,238.9375)"/>
<path d="M0 0 C7.59225481 -0.3897165 13.89213758 0.26162754 21 3 C21.67675781 3.25523437 22.35351562 3.51046875 23.05078125 3.7734375 C33.97602115 8.546388 43.62254008 18.96880101 48 30 C48.75 33.5 48.75 33.5 49 36 C33.85237273 35.40363672 20.85092846 30.35940122 10.1875 19.375 C6.17491438 14.69124448 0 6.46419197 0 0 Z " fill="#AFC63D" transform="translate(422,239)"/>
<path d="M0 0 C3.73551821 1.38081063 6.97878009 3.09571605 10.359375 5.1953125 C11.38417969 5.8251001 12.40898437 6.4548877 13.46484375 7.10375977 C14.54894531 7.77076904 15.63304687 8.43777832 16.75 9.125 C26.58434694 15.08827525 36.35204964 20.63731609 47 25 C48.05840088 25.43844238 48.05840088 25.43844238 49.13818359 25.88574219 C58.84009641 29.82545126 67.43863174 31.96652498 78 32 C78 32.99 78 33.98 78 35 C52.96401837 35.80871602 29.82239792 31.56945372 10.26953125 14.48828125 C9 13 9 13 8 10 C5.98547188 8.12602036 3.86139472 6.43900877 1.71484375 4.71875 C0 3 0 3 0 0 Z " fill="#F5AF7A" transform="translate(301,713)"/>
<path d="M0 0 C1.03898438 0.16757812 2.07796875 0.33515625 3.1484375 0.5078125 C10.47063607 1.42671457 17.90538266 0.96679313 25.265625 0.78515625 C36.4283139 0.6490259 36.4283139 0.6490259 41 4 C42.1875 6.375 42.1875 6.375 42 9 C39.29915918 12.50954894 37.79002365 13.8590252 33.38000488 14.64596558 C31.95230312 14.68110126 30.52377112 14.68902778 29.09570312 14.67529297 C27.9114185 14.69338973 27.9114185 14.69338973 26.70320892 14.71185207 C24.06219771 14.7458805 21.42246172 14.74418037 18.78125 14.7421875 C16.88849147 14.75831639 14.99574909 14.77644711 13.10302734 14.7964325 C7.97082069 14.84368977 2.83897274 14.85870629 -2.29342651 14.86699295 C-6.56934943 14.87767024 -10.84506961 14.90672378 -15.12090302 14.93547153 C-60.74943999 15.23489498 -106.37739071 14.70685023 -152 14 C-152 13.67 -152 13.34 -152 13 C-151.39839522 12.99576806 -150.79679045 12.99153612 -150.17695522 12.98717594 C-135.18354066 12.88151085 -120.19015257 12.77264143 -105.19678402 12.66066074 C-97.9445941 12.60656541 -90.69240013 12.55337657 -83.44018555 12.50268555 C-75.01088144 12.44362915 -66.58160068 12.38186459 -58.15234375 12.31640625 C-57.10679235 12.3082869 -57.10679235 12.3082869 -56.04011869 12.30000353 C-24.35708737 12.05160491 7.32107405 11.55968465 39 11 C38.34 8.69 37.68 6.38 37 4 C35.35 3.67 33.7 3.34 32 3 C31.67 3.66 31.34 4.32 31 5 C-1.67 4.505 -1.67 4.505 -35 4 C-35 3.34 -35 2.68 -35 2 C-23.45 2 -11.9 2 0 2 C0 1.34 0 0.68 0 0 Z " fill="#422F2D" transform="translate(808,715)"/>
<path d="M0 0 C2.37160148 2.37160148 2.31983352 3.00621122 2.375 6.25 C2.22379958 10.98257306 1.26687236 13.42199694 -2 17 C-7.00201114 21.13693729 -11.33134063 24.58204781 -18 25 C-20.48525744 22.51474256 -20.5568991 21.47095704 -21 18 C-21.12375 17.31292969 -21.2475 16.62585938 -21.375 15.91796875 C-21.65510849 13.3488487 -21.67336123 11.50473221 -21 9 C-18.36066712 6.07366077 -15.32463013 4.08140973 -12 2 C-11.13375 1.34 -10.2675 0.68 -9.375 0 C-5.95845996 -1.43854318 -3.54068412 -0.86846969 0 0 Z " fill="#FDD7B1" transform="translate(377,372)"/>
<path d="M0 0 C1.19109375 -0.03867187 1.19109375 -0.03867187 2.40625 -0.078125 C3.0971875 0.03015625 3.788125 0.1384375 4.5 0.25 C6.5 3.25 6.5 3.25 6.4375 6.625 C5.28959529 11.06356487 4.15813232 12.50640076 0.5 15.25 C-1.74779362 16.17556208 -3.97758846 16.91351286 -6.31640625 17.57421875 C-8.5413253 18.19007997 -8.5413253 18.19007997 -10.60546875 19.35546875 C-13.18877541 20.57521561 -14.81216739 19.99662017 -17.5 19.25 C-18.15516223 14.88225182 -17.344824 12.58346807 -14.8125 9.125 C-10.64875894 3.97692299 -6.80219497 0.13251029 0 0 Z " fill="#FDD7B0" transform="translate(353.5,396.75)"/>
<path d="M0 0 C36.96 0 73.92 0 112 0 C112 0.33 112 0.66 112 1 C109.69 1.33 107.38 1.66 105 2 C105 2.33 105 2.66 105 3 C104.14938256 2.99666908 104.14938256 2.99666908 103.28158092 2.99327087 C89.44119429 2.9418374 75.60140509 2.93541422 61.76097393 2.97665405 C55.06753833 2.99578528 48.37481313 2.9992169 41.68139648 2.96923828 C35.21655101 2.94083004 28.75282301 2.95150969 22.28803444 2.98880005 C19.8270166 2.99622187 17.36591498 2.98977954 14.90497398 2.96896362 C-1.92452161 2.27372888 -1.92452161 2.27372888 -16.10221863 10.03491211 C-16.72848648 10.68339111 -17.35475433 11.33187012 -18 12 C-20.29369211 13.60240379 -22.46661132 14.78608459 -25 16 C-25.99 15.67 -26.98 15.34 -28 15 C-26.33710937 13.96939453 -26.33710937 13.96939453 -24.640625 12.91796875 C-23.17702344 12.00790881 -21.71348509 11.09774722 -20.25 10.1875 C-19.52039063 9.73568359 -18.79078125 9.28386719 -18.0390625 8.81835938 C-13.77742502 6.17078774 -13.77742502 6.17078774 -9.75 3.1875 C-6.65789236 1.0892841 -3.63244635 1.81837768 0 2 C0 1.34 0 0.68 0 0 Z " fill="#715346" transform="translate(640,727)"/>
<path d="M0 0 C0.86850586 -0.00029205 1.73701172 -0.00058411 2.63183594 -0.00088501 C5.50506551 0.00050931 8.37803638 0.01607534 11.2512207 0.03173828 C13.24233356 0.03546805 15.23344825 0.03831519 17.2245636 0.04031372 C22.46726542 0.04795303 27.70985658 0.06760412 32.95251465 0.08972168 C38.30141706 0.11017366 43.65033734 0.11931405 48.99926758 0.12939453 C59.49606101 0.1508497 69.99277228 0.18498928 80.48950195 0.22705078 C80.48950195 0.88705078 80.48950195 1.54705078 80.48950195 2.22705078 C68.93950195 2.88705078 57.38950195 3.54705078 45.48950195 4.22705078 C45.48950195 4.55705078 45.48950195 4.88705078 45.48950195 5.22705078 C43.83950195 5.22705078 42.18950195 5.22705078 40.48950195 5.22705078 C40.48950195 4.56705078 40.48950195 3.90705078 40.48950195 3.22705078 C39.43762695 3.41267578 38.38575195 3.59830078 37.30200195 3.78955078 C33.78603677 4.1930222 31.85608906 3.96605771 28.48950195 3.22705078 C27.09388089 3.20270855 25.69765245 3.20445932 24.30200195 3.22705078 C20.48950195 3.22705078 20.48950195 3.22705078 18.48950195 2.22705078 C18.15950195 2.88705078 17.82950195 3.54705078 17.48950195 4.22705078 C17.48950195 3.56705078 17.48950195 2.90705078 17.48950195 2.22705078 C7.91950195 2.22705078 -1.65049805 2.22705078 -11.51049805 2.22705078 C-7.64687213 -0.34869983 -4.47708626 -0.03919107 0 0 Z " fill="#493530" transform="translate(423.510498046875,729.77294921875)"/>
<path d="M0 0 C3.52848105 0.04594376 6.3903595 0.12582722 9.5 1.875 C11.8125 4.3125 11.8125 4.3125 12.1875 8.0625 C12.06375 9.135 11.94 10.2075 11.8125 11.3125 C9.625 12 9.625 12 6.8125 12.3125 C5.9875 11.796875 5.1625 11.28125 4.3125 10.75 C3.4875 10.275625 2.6625 9.80125 1.8125 9.3125 C-0.61778072 9.97530383 -2.3885972 10.5135972 -4.1875 12.3125 C-7.1875 12.4375 -7.1875 12.4375 -10.1875 12.3125 C-11.1875 11.3125 -11.1875 11.3125 -11.5625 9.0625 C-11.03500459 5.19420031 -9.05255492 3.82815798 -6.1875 1.3125 C-4.47957001 -0.39542999 -2.33206519 0.05979654 0 0 Z " fill="#5E3F38" transform="translate(455.1875,569.6875)"/>
<path d="M0 0 C4.65063107 1.43084061 7.52497071 4.10202302 10.859375 7.49609375 C11.40805237 8.04427261 11.95672974 8.59245148 12.52203369 9.15724182 C13.68203578 10.31957972 14.83835748 11.48560075 15.99121094 12.6550293 C17.72190838 14.40903013 19.4652219 16.14963252 21.2109375 17.88867188 C27.92206235 24.61687857 34.13207155 31.51520964 40 39 C40.95330516 40.18059431 41.90756668 41.3604178 42.86328125 42.5390625 C53.59572298 56.06159674 63.38751901 70.03234151 72 85 C72.38671875 85.6197168 72.7734375 86.23943359 73.171875 86.87792969 C74.18975291 88.54156748 75.10295951 90.26821349 76 92 C75.505 93.485 75.505 93.485 75 95 C74.68885254 94.47269287 74.37770508 93.94538574 74.05712891 93.40209961 C64.50663603 77.25388092 54.65613494 61.7093894 43 47 C42.31035156 46.11570312 41.62070312 45.23140625 40.91015625 44.3203125 C36.18449543 38.31264073 31.16532383 32.63118374 26 27 C25.07230076 25.96800124 24.14524496 24.93542381 23.21875 23.90234375 C17.46028192 17.52446938 11.50858029 11.51164766 5.10058594 5.78173828 C1.09326979 2.18653957 1.09326979 2.18653957 0 0 Z " fill="#483430" transform="translate(659,352)"/>
<path d="M0 0 C1.55847656 0.25136719 1.55847656 0.25136719 3.1484375 0.5078125 C10.47063607 1.42671457 17.90538266 0.96679313 25.265625 0.78515625 C36.45465642 0.64870465 36.45465642 0.64870465 41 4 C42.0625 6.4375 42.0625 6.4375 42 9 C40.6875 11.3125 40.6875 11.3125 39 13 C38.34 13 37.68 13 37 13 C37 12.34 37 11.68 37 11 C37.66 11 38.32 11 39 11 C38.34 8.69 37.68 6.38 37 4 C35.35 3.67 33.7 3.34 32 3 C31.67 3.66 31.34 4.32 31 5 C-1.67 4.505 -1.67 4.505 -35 4 C-35 3.34 -35 2.68 -35 2 C-23.45 2 -11.9 2 0 2 C0 1.34 0 0.68 0 0 Z " fill="#503B36" transform="translate(808,715)"/>
<path d="M0 0 C38.61 0 77.22 0 117 0 C117 0.33 117 0.66 117 1 C115.86034286 1.0154612 115.86034286 1.0154612 114.69766235 1.03123474 C107.54616045 1.12911217 100.394747 1.23161256 93.24338722 1.33933926 C89.56658571 1.39456189 85.88977624 1.44798081 82.21289062 1.49731445 C78.66614134 1.54496779 75.11948974 1.59731091 71.5728569 1.65294075 C70.2180664 1.67335992 68.86324912 1.69207374 67.50841141 1.70907402 C65.61443211 1.73312739 63.72053957 1.76374383 61.82666016 1.79467773 C60.20783432 1.81799416 60.20783432 1.81799416 58.55630493 1.84178162 C56.00983443 1.83212193 56.00983443 1.83212193 54 3 C51.99199544 2.71887936 49.98985949 2.38932033 48 2 C48 2.66 48 3.32 48 4 C46.35 4 44.7 4 43 4 C43 3.67 43 3.34 43 3 C41.20598755 2.970271 41.20598755 2.970271 39.37573242 2.93994141 C34.94192306 2.86391728 30.50844326 2.77519503 26.07495117 2.68261719 C24.15542096 2.64431423 22.23581865 2.60946367 20.31616211 2.578125 C17.5581687 2.53250298 14.80067223 2.4745042 12.04296875 2.4140625 C11.18350143 2.40251129 10.32403412 2.39096008 9.43852234 2.37905884 C8.63791885 2.35918915 7.83731537 2.33931946 7.01245117 2.31884766 C6.3085173 2.30552399 5.60458344 2.29220032 4.87931824 2.2784729 C3 2 3 2 0 0 Z " fill="#47312C" transform="translate(181,732)"/>
<path d="M0 0 C0.33 0 0.66 0 1 0 C1.33 21.78 1.66 43.56 2 66 C-5.03608428 58.96391572 -1.89925261 35.44758689 -2 26 C-1.76845152 5.30535456 -1.76845152 5.30535456 0 0 Z " fill="#44332F" transform="translate(271,523)"/>
<path d="M0 0 C0.33 0 0.66 0 1 0 C2.00127067 12.73670581 1.96904932 25.29963109 1.5625 38.0625 C1.50908869 39.91208995 1.45635083 41.76169948 1.40429688 43.61132812 C1.27725953 48.07448156 1.14123158 52.53727412 1 57 C0.67 57 0.34 57 0 57 C-0.96528565 47.18223135 -1.15589613 37.45229237 -1.13037109 27.59570312 C-1.12496307 25.10801225 -1.1303751 22.62049827 -1.13671875 20.1328125 C-1.13605862 18.52864544 -1.13477882 16.92447849 -1.1328125 15.3203125 C-1.13483673 14.58789337 -1.13686096 13.85547424 -1.13894653 13.1008606 C-1.11873389 8.62327493 -0.72663873 4.40384923 0 0 Z " fill="#452C2B" transform="translate(281,516)"/>
<path d="M0 0 C0.33 0.99 0.66 1.98 1 3 C30.7 3 60.4 3 91 3 C91 3.33 91 3.66 91 4 C60.97 4.33 30.94 4.66 0 5 C-0.33 4.34 -0.66 3.68 -1 3 C-0.67 2.01 -0.34 1.02 0 0 Z " fill="#95513E" transform="translate(413,716)"/>
<path d="M0 0 C0.66 0.33 1.32 0.66 2 1 C1.52542358 1.69222656 1.52542358 1.69222656 1.04125977 2.3984375 C-6.19405512 12.99295898 -12.90796897 23.70820512 -19 35 C-20 32 -20 32 -18.734375 28.98828125 C-18.08630778 27.75588558 -17.42375171 26.53104374 -16.75 25.3125 C-16.39736084 24.66200684 -16.04472168 24.01151367 -15.68139648 23.34130859 C-6.09777154 6.09777154 -6.09777154 6.09777154 0 0 Z " fill="#4B3733" transform="translate(321,384)"/>
<path d="M0 0 C1.0528418 0.01353516 1.0528418 0.01353516 2.12695312 0.02734375 C3.85561525 0.05086296 5.58410145 0.08673287 7.3125 0.125 C5.74193816 9.54837105 0.33381305 16.94107031 -5.6875 24.125 C-6.3475 23.795 -7.0075 23.465 -7.6875 23.125 C-7.15640625 22.43535156 -6.6253125 21.74570312 -6.078125 21.03515625 C-1.73102552 15.25224471 1.66316054 9.8587378 4.3125 3.125 C-0.6375 2.795 -5.5875 2.465 -10.6875 2.125 C-7.00662647 -0.32891569 -4.24394412 -0.10302759 0 0 Z " fill="#5B3144" transform="translate(527.6875,236.875)"/>
<path d="M0 0 C3.89969212 0.55998667 6.3729092 1.65003929 9.58203125 3.9140625 C10.43216797 4.51089844 11.28230469 5.10773438 12.15820312 5.72265625 C13.03412109 6.35042969 13.91003906 6.97820312 14.8125 7.625 C15.67681641 8.22957031 16.54113281 8.83414062 17.43164062 9.45703125 C22.91404387 13.33815898 28.04191456 17.46893087 33 22 C32.67 22.66 32.34 23.32 32 24 C31.16339844 23.32195312 30.32679688 22.64390625 29.46484375 21.9453125 C22.48991898 16.34998757 15.41134597 11.10184609 7.88842773 6.26220703 C4.98636553 4.38502502 2.29622309 2.60516947 0 0 Z " fill="#4E3832" transform="translate(623,326)"/>
<path d="M0 0 C1.22589844 0.01353516 1.22589844 0.01353516 2.4765625 0.02734375 C3.41628906 0.04474609 3.41628906 0.04474609 4.375 0.0625 C2.375 2.0625 2.375 2.0625 -1.375 2.875 C-6.89320833 4.15690684 -10.10145571 6.88600816 -13.375 11.5625 C-14.60477517 14.02205034 -15.66772563 16.48522285 -16.625 19.0625 C-16.955 19.0625 -17.285 19.0625 -17.625 19.0625 C-18.28016223 14.69475182 -17.469824 12.39596807 -14.9375 8.9375 C-10.693916 3.69070465 -6.92528833 -0.09893269 0 0 Z " fill="#FCD0A4" transform="translate(353.625,396.9375)"/>
<path d="M0 0 C0.33 0 0.66 0 1 0 C1.02927632 3.52081558 1.04689119 7.04159939 1.0625 10.5625 C1.07087891 11.55314453 1.07925781 12.54378906 1.08789062 13.56445312 C1.10536914 18.82548699 0.92308398 23.81764665 0 29 C-2.60269085 26.39730915 -2.25725649 25.28043207 -2.265625 21.66015625 C-2.26820313 20.59732422 -2.27078125 19.53449219 -2.2734375 18.43945312 C-2.26570313 17.32505859 -2.25796875 16.21066406 -2.25 15.0625 C-2.25773437 13.95197266 -2.26546875 12.84144531 -2.2734375 11.69726562 C-2.27085937 10.63314453 -2.26828125 9.56902344 -2.265625 8.47265625 C-2.26336914 7.49562744 -2.26111328 6.51859863 -2.25878906 5.51196289 C-2 3 -2 3 0 0 Z " fill="#F8C991" transform="translate(284,530)"/>
<path d="M0 0 C0.66 0.33 1.32 0.66 2 1 C1.52691406 1.44988281 1.05382812 1.89976562 0.56640625 2.36328125 C-4.2946264 7.09165414 -8.63240609 12.08298106 -12.87890625 17.3671875 C-15.51665382 20.64129774 -18.24659347 23.82299246 -21 27 C-21.33 26.34 -21.66 25.68 -22 25 C-18.11367784 19.93903384 -14.17523104 14.91893748 -10.1875 9.9375 C-9.43855469 8.99777344 -8.68960937 8.05804688 -7.91796875 7.08984375 C-7.28503906 6.40019531 -6.65210938 5.71054687 -6 5 C-5.34 5 -4.68 5 -4 5 C-4 4.34 -4 3.68 -4 3 C-2 1.375 -2 1.375 0 0 Z " fill="#4F3A35" transform="translate(345,356)"/>
<path d="M0 0 C4.875 1.875 4.875 1.875 6 3 C6.28806788 5.92869015 6.49240086 8.15071413 6 11 C3.8125 13.5 3.8125 13.5 1 15 C-0.65 15 -2.3 15 -4 15 C-4.33 19.29 -4.66 23.58 -5 28 C-5.33 28 -5.66 28 -6 28 C-6 23.05 -6 18.1 -6 13 C-4.72125 12.87625 -3.4425 12.7525 -2.125 12.625 C1.34790936 12.30957601 1.34790936 12.30957601 4 10 C3.76394255 5.16236081 3.76394255 5.16236081 1.4375 1.0625 C0.963125 0.711875 0.48875 0.36125 0 0 Z " fill="#FBE7AE" transform="translate(410,495)"/>
<path d="M0 0 C-2.96716367 0.86415255 -5.54052934 1.09735973 -8.625 1.02734375 C-9.49640625 1.01509766 -10.3678125 1.00285156 -11.265625 0.99023438 C-13.08862116 0.95507659 -14.91154618 0.91601355 -16.734375 0.87304688 C-17.60578125 0.86208984 -18.4771875 0.85113281 -19.375 0.83984375 C-20.16648437 0.82300537 -20.95796875 0.80616699 -21.7734375 0.78881836 C-24.25502791 1.0241885 -25.85698623 1.75999988 -28 3 C-27.5 1.125 -27.5 1.125 -26 -1 C-17.73233289 -4.21520388 -8.14397924 -3.39332469 0 0 Z " fill="#533D36" transform="translate(442,229)"/>
<path d="M0 0 C3.65094011 0.94473408 6.30096424 2.30096424 9 5 C8.67 5.99 8.34 6.98 8 8 C7.67 7.01 7.34 6.02 7 5 C-0.63600985 3.22458462 -8.1812896 2.46569122 -16 2 C-11.12285763 -1.25142825 -5.70676374 -0.46011212 0 0 Z " fill="#5E453B" transform="translate(534,226)"/>
<path d="M0 0 C12.05023529 -0.11317227 23.98785879 -0.03330247 36 1 C36 1.33 36 1.66 36 2 C30.06 2.495 30.06 2.495 24 3 C24 3.33 24 3.66 24 4 C22.35 4 20.7 4 19 4 C19 3.34 19 2.68 19 2 C17.948125 2.185625 16.89625 2.37125 15.8125 2.5625 C12.33197157 2.9619049 10.33048793 2.76857414 7 2 C5.0003559 1.96227087 2.99945939 1.95350094 1 2 C0.67 1.34 0.34 0.68 0 0 Z " fill="#745346" transform="translate(445,731)"/>
<path d="M0 0 C3.98300128 0.23429419 6.34439714 0.44525912 9.4375 3.0625 C10.283125 4.031875 11.12875 5.00125 12 6 C13.38948915 7.38141073 14.78575377 8.75602841 16.1875 10.125 C18.47587171 12.37399247 20.2077341 14.31160115 22 17 C21.67 17.99 21.34 18.98 21 20 C20.63390625 19.45472656 20.2678125 18.90945312 19.890625 18.34765625 C15.55179878 12.30429115 10.57933964 8.11980624 4.57421875 3.84765625 C2 2 2 2 0 0 Z " fill="#543D38" transform="translate(452,234)"/>
<path d="M0 0 C8.91 0 17.82 0 27 0 C26.67 0.66 26.34 1.32 26 2 C21.93070709 3.01732323 19.04067918 2.88697836 15 2 C12.66698014 1.96175377 10.33288492 1.95425716 8 2 C8 2.33 8 2.66 8 3 C5.6875 3.1875 5.6875 3.1875 3 3 C2.01 2.01 1.02 1.02 0 0 Z " fill="#9E715E" transform="translate(413,732)"/>
<path d="M0 0 C0 3.51234417 -0.39985805 3.87842441 -2.75 6.3125 C-7.99644477 11.33455507 -15.00054475 15.80999112 -22.37109375 16.16015625 C-23.23863281 16.10730469 -24.10617187 16.05445313 -25 16 C-22.6635808 13.6635808 -21.06967766 13.28607421 -17.9375 12.3125 C-10.68708922 9.77819084 -5.30925081 5.45857349 0 0 Z " fill="#4B3732" transform="translate(406,742)"/>
<path d="M0 0 C-0.33 0.66 -0.66 1.32 -1 2 C-4.74993479 2.05811773 -8.49975352 2.09363593 -12.25 2.125 C-13.84521484 2.15013672 -13.84521484 2.15013672 -15.47265625 2.17578125 C-17.00986328 2.18544922 -17.00986328 2.18544922 -18.578125 2.1953125 C-19.99206543 2.21102295 -19.99206543 2.21102295 -21.43457031 2.22705078 C-24.09951941 1.99119213 -25.71863092 1.35661659 -28 0 C-23.89621612 -0.19660714 -19.79196562 -0.3807276 -15.6875 -0.5625 C-14.52025391 -0.61857422 -13.35300781 -0.67464844 -12.15039062 -0.73242188 C-11.03212891 -0.78076172 -9.91386719 -0.82910156 -8.76171875 -0.87890625 C-7.2142395 -0.94960327 -7.2142395 -0.94960327 -5.63549805 -1.02172852 C-3 -1 -3 -1 0 0 Z " fill="#4F2F2D" transform="translate(382,748)"/>
<path d="M0 0 C0.33 0.99 0.66 1.98 1 3 C14.86 3 28.72 3 43 3 C43 3.33 43 3.66 43 4 C28.81 4.33 14.62 4.66 0 5 C-0.33 4.34 -0.66 3.68 -1 3 C-0.67 2.01 -0.34 1.02 0 0 Z " fill="#824636" transform="translate(413,716)"/>
<path d="M0 0 C-5.79068029 3.86045353 -13.2384375 3.14086589 -20 3 C-20 3.66 -20 4.32 -20 5 C-19.34 5.33 -18.68 5.66 -18 6 C-22.15654359 5.53816182 -24.21466571 5.11990898 -27 2 C-23.62545836 1.66191643 -20.25030319 1.33038682 -16.875 1 C-15.92367187 0.90460937 -14.97234375 0.80921875 -13.9921875 0.7109375 C-9.30899618 0.25562723 -4.7123674 -0.12693246 0 0 Z " fill="#F19A6C" transform="translate(554,740)"/>
<path d="M0 0 C0.66 0.33 1.32 0.66 2 1 C0.5752485 2.66221008 -0.85039036 4.32350629 -2.28125 5.98046875 C-3.40455627 7.30035362 -4.50974548 8.63593247 -5.59375 9.98828125 C-6.0990625 10.61089844 -6.604375 11.23351562 -7.125 11.875 C-7.80949219 12.73738281 -7.80949219 12.73738281 -8.5078125 13.6171875 C-10.28068904 15.26011498 -11.64394624 15.60563907 -14 16 C-12.34136495 11.67495164 -9.128959 8.90581175 -5.875 5.75 C-5.31167969 5.19570313 -4.74835937 4.64140625 -4.16796875 4.0703125 C-2.78313972 2.70895515 -1.39216796 1.35385141 0 0 Z " fill="#472E2D" transform="translate(531,678)"/>
<path d="M0 0 C0.66 0.33 1.32 0.66 2 1 C-4.6 7.6 -11.2 14.2 -18 21 C-18 18 -18 18 -16.46875 16.28125 C-15.15625 15.09375 -13.84375 13.90625 -12.53125 12.71875 C-10.66739698 11.01032314 -10.66739698 11.01032314 -11 8 C-10.41734375 7.90847656 -9.8346875 7.81695312 -9.234375 7.72265625 C-6.46816153 6.82798931 -5.23626036 5.53835231 -3.25 3.4375 C-2.63640625 2.79683594 -2.0228125 2.15617187 -1.390625 1.49609375 C-0.93171875 1.00238281 -0.4728125 0.50867188 0 0 Z " fill="#725549" transform="translate(357,346)"/>
<path d="M0 0 C0.33 0 0.66 0 1 0 C1.67608269 2.85222385 2.34105115 5.70631293 3 8.5625 C3.19078125 9.36236328 3.3815625 10.16222656 3.578125 10.98632812 C4.67461122 15.78345532 5.21132197 20.08016034 5 25 C4.34 24.67 3.68 24.34 3 24 C0.60912557 16.11450131 -0.51129982 8.21867115 0 0 Z " fill="#46332E" transform="translate(274,597)"/>
<path d="M0 0 C2.73170064 3.42316236 4.86447443 7.12807562 7 10.9375 C9.28530831 14.98833785 11.58574772 19.02402827 14 23 C9.31887106 21.50032482 7.64772469 17.75873827 5.3125 13.75 C4.90966797 13.09386719 4.50683594 12.43773437 4.09179688 11.76171875 C1.76828885 7.84639367 0.4232148 4.61949709 0 0 Z " fill="#4A3530" transform="translate(274,696)"/>
<path d="M0 0 C2.71867973 1.35933986 2.67450292 2.59045034 3.625 5.4375 C5.94279063 11.56814469 9.71568188 16.11254972 14 21 C13.34 21.66 12.68 22.32 12 23 C10.55628097 21.12952125 9.12006561 19.25399303 7.6875 17.375 C6.48673828 15.80878906 6.48673828 15.80878906 5.26171875 14.2109375 C1.99016931 9.56635436 -0.51190168 5.80155242 0 0 Z " fill="#4E3834" transform="translate(414,246)"/>
<path d="M0 0 C0.99 0.495 0.99 0.495 2 1 C4.04045556 8.53205202 4.27470773 16.24713743 4 24 C3.67 24 3.34 24 3 24 C0.9053775 16.04043449 0.41005616 8.19033227 0 0 Z " fill="#483430" transform="translate(778,565)"/>
<path d="M0 0 C6.625 -0.125 6.625 -0.125 10 1 C10 1.66 10 2.32 10 3 C10.61488281 3.04898437 11.22976563 3.09796875 11.86328125 3.1484375 C12.67152344 3.22320312 13.47976563 3.29796875 14.3125 3.375 C15.51326172 3.47941406 15.51326172 3.47941406 16.73828125 3.5859375 C19 4 19 4 22 6 C16.80032856 5.57960103 11.64050719 5.02421409 6.5 4.125 C5.6853125 3.98320312 4.870625 3.84140625 4.03125 3.6953125 C2 3 2 3 0 0 Z " fill="#51312F" transform="translate(538,305)"/>
<path d="M0 0 C0.99 0.33 1.98 0.66 3 1 C0.93821926 2.75085334 -1.12439877 4.50070381 -3.1875 6.25 C-3.76564453 6.74113281 -4.34378906 7.23226563 -4.93945312 7.73828125 C-8.25231411 10.54579056 -11.5936212 13.30568908 -15 16 C-14.44477028 12.32260897 -13.14656475 10.89992864 -10.3125 8.5625 C-9.59320313 7.96566406 -8.87390625 7.36882812 -8.1328125 6.75390625 C-7.42898438 6.17511719 -6.72515625 5.59632813 -6 5 C-5.41992188 4.47277344 -4.83984375 3.94554687 -4.2421875 3.40234375 C-2.6875 2 -2.6875 2 0 0 Z " fill="#513A35" transform="translate(363,339)"/>
<path d="M0 0 C0.66 0.33 1.32 0.66 2 1 C0.58510266 2.27280294 -0.83199666 3.5431583 -2.25 4.8125 C-3.03890625 5.52019531 -3.8278125 6.22789062 -4.640625 6.95703125 C-6.7016833 8.74168935 -8.79605523 10.39759062 -11 12 C-11.66 11.67 -12.32 11.34 -13 11 C-11.4375 9.79557292 -9.875 8.59114583 -8.3125 7.38671875 C-6.65629795 5.95508863 -6.65629795 5.95508863 -7 3 C-4.66785852 1.79371992 -2.50357861 0.8345262 0 0 Z " fill="#6E5145" transform="translate(372,334)"/>
<path d="M0 0 C6.99177181 0.5378286 13.5319106 2.25753009 20 5 C20.33 5.66 20.66 6.32 21 7 C15.85404946 6.42381249 11.44921945 5.25256722 6.5625 3.4375 C5.32628906 2.98246094 4.09007812 2.52742188 2.81640625 2.05859375 C1.88699219 1.70925781 0.95757813 1.35992187 0 1 C0 0.67 0 0.34 0 0 Z " fill="#523C36" transform="translate(565,301)"/>
<path d="M0 0 C0.33 0 0.66 0 1 0 C1.33 7.92 1.66 15.84 2 24 C1.01 23.34 0.02 22.68 -1 22 C-1.328125 20.0390625 -1.328125 20.0390625 -1.25 17.625 C-1.22421875 16.74328125 -1.1984375 15.8615625 -1.171875 14.953125 C-0.88121706 9.95909316 -0.47910966 4.97931823 0 0 Z " fill="#725447" transform="translate(782,653)"/>
<path d="M0 0 C5.87554785 5.2227092 9.20685075 11.06850745 10 19 C7.36 18.67 4.72 18.34 2 18 C2 17.67 2 17.34 2 17 C3.98 17 5.96 17 8 17 C7.25943359 15.53626953 7.25943359 15.53626953 6.50390625 14.04296875 C5.85666469 12.75786595 5.20953512 11.47270675 4.5625 10.1875 C4.23701172 9.54490234 3.91152344 8.90230469 3.57617188 8.24023438 C2.20767324 5.51734534 0.96516735 2.89550206 0 0 Z " fill="#C1E83A" transform="translate(461,256)"/>
<path d="M0 0 C0.66 0.33 1.32 0.66 2 1 C1.73781251 5.4571874 1.42288711 7.51522698 -1.5625 10.9375 C-2.366875 11.618125 -3.17125 12.29875 -4 13 C-4.99 12.67 -5.98 12.34 -7 12 C-5.625 10 -5.625 10 -4 8 C-3.34 8 -2.68 8 -2 8 C-1.34 5.36 -0.68 2.72 0 0 Z " fill="#FCCEA3" transform="translate(358,399)"/>
<path d="M0 0 C0 0.66 0 1.32 0 2 C-2.47410219 3.6317293 -4.93659659 5.14700164 -7.5 6.625 C-8.21542969 7.04523438 -8.93085938 7.46546875 -9.66796875 7.8984375 C-11.44146033 8.93888589 -13.22025266 9.97028904 -15 11 C-15 10.01 -15 9.02 -15 8 C-12.8940354 6.44870495 -10.87244957 5.12351225 -8.625 3.8125 C-8.02171875 3.44447266 -7.4184375 3.07644531 -6.796875 2.69726562 C-2.29309195 0 -2.29309195 0 0 0 Z " fill="#4A3632" transform="translate(393,320)"/>
<path d="M0 0 C0.721875 0.268125 1.44375 0.53625 2.1875 0.8125 C0.68543919 3.81662163 -1.84719065 4.35891699 -4.8125 5.8125 C-6.17113401 6.77784522 -7.51593137 7.76527149 -8.8125 8.8125 C-8.46907251 5.72165263 -7.55294345 4.48805431 -5.5625 2 C-2.8125 -0.1875 -2.8125 -0.1875 0 0 Z " fill="#FBC999" transform="translate(366.8125,371.1875)"/>
<path d="M0 0 C-3.62174279 3.62174279 -9.03284894 4.87956218 -14.0625 5.1875 C-15.0215625 5.0946875 -15.0215625 5.0946875 -16 5 C-15 3 -15 3 -13.14453125 2.1484375 C-8.62151874 0.6483429 -4.83255247 -0.37173481 0 0 Z " fill="#4E3A34" transform="translate(440,301)"/>
<path d="M0 0 C0.33 0 0.66 0 1 0 C1 3.96 1 7.92 1 12 C0.34 12 -0.32 12 -1 12 C-1.33 12.66 -1.66 13.32 -2 14 C-3.13416151 8.32919247 -2.13577875 5.26825424 0 0 Z " fill="#5C453D" transform="translate(413,233)"/>
<path d="M0 0 C0.33 0 0.66 0 1 0 C1.20496094 0.83144531 1.40992188 1.66289063 1.62109375 2.51953125 C1.89050781 3.60621094 2.15992188 4.69289063 2.4375 5.8125 C2.83775391 7.43091797 2.83775391 7.43091797 3.24609375 9.08203125 C3.76077412 11.0740843 4.34937175 13.04811524 5 15 C4.01 15 3.02 15 2 15 C1.46467177 13.44240657 0.94734622 11.87861955 0.4375 10.3125 C0.14746094 9.44238281 -0.14257812 8.57226562 -0.44140625 7.67578125 C-1.05141961 4.75368926 -0.77703633 2.85599447 0 0 Z " fill="#574039" transform="translate(270,681)"/>
<path d="M0 0 C-1.28965176 1.37562854 -2.62689293 2.70766393 -4 4 C-4.66 4 -5.32 4 -6 4 C-6.33 4.99 -6.66 5.98 -7 7 C-7.99 6.67 -8.98 6.34 -10 6 C-10.33 5.01 -10.66 4.02 -11 3 C-9.73581754 2.30034557 -8.46334598 1.61565237 -7.1875 0.9375 C-6.47980469 0.55464844 -5.77210938 0.17179687 -5.04296875 -0.22265625 C-3 -1 -3 -1 0 0 Z " fill="#FBC898" transform="translate(349,414)"/>
<path d="M0 0 C1.32 0.66 2.64 1.32 4 2 C1.77115855 2.95909551 -0.45805968 3.91729837 -2.6875 4.875 C-3.31333984 5.14441406 -3.93917969 5.41382813 -4.58398438 5.69140625 C-8.03842094 7.17446278 -11.50218321 8.62227484 -15 10 C-11.66463131 6.10873653 -7.73789501 3.82900259 -3 2 C-2.01 2 -1.02 2 0 2 C0 1.34 0 0.68 0 0 Z " fill="#5A2D44" transform="translate(512,238)"/>
<path d="M0 0 C0.33 2.64 0.66 5.28 1 8 C-0.65 7.67 -2.3 7.34 -4 7 C-3.34 5.35 -2.68 3.7 -2 2 C-4.97 2 -7.94 2 -11 2 C-11 1.67 -11 1.34 -11 1 C-3.375 0 -3.375 0 0 0 Z " fill="#7A594A" transform="translate(475,285)"/>
<path d="M0 0 C3.10742423 1.46818668 5.90471739 3.20025 8.75 5.125 C9.94882812 5.93324219 9.94882812 5.93324219 11.171875 6.7578125 C11.77515625 7.16773438 12.3784375 7.57765625 13 8 C12.01 8.33 11.02 8.66 10 9 C8.28125 8.0390625 8.28125 8.0390625 6.5 6.625 C4.2063377 4.82427389 2.83198518 3.94399506 0 3 C0 2.01 0 1.02 0 0 Z " fill="#573E39" transform="translate(428,269)"/>
<path d="M0 0 C0.66 0.33 1.32 0.66 2 1 C1.34 1.66 0.68 2.32 0 3 C-0.47190782 7.12855305 -0.47190782 7.12855305 1.25 10.75 C3.09419396 12.0672814 4.93341837 13.07360134 7 14 C3.625 13.6875 3.625 13.6875 0 13 C-2.71232939 8.93150591 -2.30699887 6.83523216 -2 2 C-1.34 1.34 -0.68 0.68 0 0 Z " fill="#F9E3A8" transform="translate(492,494)"/>
<path d="M0 0 C4 2 4 2 4.9375 4.375 C5 7 5 7 3.6875 9.3125 C3.130625 9.869375 2.57375 10.42625 2 11 C1.34 11 0.68 11 0 11 C0 10.34 0 9.68 0 9 C0.66 9 1.32 9 2 9 C1.34 6.03 0.68 3.06 0 0 Z " fill="#503B35" transform="translate(845,717)"/>
<path d="M0 0 C7.48291572 6.15034169 7.48291572 6.15034169 10 10 C7 10 7 10 5.17578125 8.3203125 C4.56089844 7.59585937 3.94601562 6.87140625 3.3125 6.125 C2.68988281 5.40570313 2.06726563 4.68640625 1.42578125 3.9453125 C0 2 0 2 0 0 Z " fill="#533D37" transform="translate(680,371)"/>
<path d="M0 0 C-1.76371818 1.03307771 -3.53625033 2.05112049 -5.3125 3.0625 C-6.79169922 3.91521484 -6.79169922 3.91521484 -8.30078125 4.78515625 C-11 6 -11 6 -14 5 C-12.70903219 4.18639005 -11.41720125 3.37414954 -10.125 2.5625 C-9.04605469 1.88380859 -9.04605469 1.88380859 -7.9453125 1.19140625 C-4.71592036 -0.78643432 -3.63014076 -1.08904223 0 0 Z " fill="#513C36" transform="translate(408,314)"/>
<path d="M0 0 C0.33 0 0.66 0 1 0 C1.1799928 5.21979128 0.97094808 9.07262981 -1 14 C-1.33 14 -1.66 14 -2 14 C-2.05389087 12.04196493 -2.09274217 10.08351091 -2.125 8.125 C-2.14820313 7.03445313 -2.17140625 5.94390625 -2.1953125 4.8203125 C-2 2 -2 2 0 0 Z " fill="#725346" transform="translate(783,593)"/>
<path d="M0 0 C0.33 0 0.66 0 1 0 C1 1.65 1 3.3 1 5 C4.465 4.505 4.465 4.505 8 4 C7.01 5.485 7.01 5.485 6 7 C2.9375 7.25 2.9375 7.25 0 7 C-1 6 -1 6 -1.125 3.5 C-1 1 -1 1 0 0 Z " fill="#512B27" transform="translate(445,575)"/>
<path d="M0 0 C0.33 0.66 0.66 1.32 1 2 C1.66 2 2.32 2 3 2 C3.96070434 4.88211302 4.10581883 6.69850044 4.0625 9.6875 C4.05347656 10.49574219 4.04445313 11.30398438 4.03515625 12.13671875 C4.02355469 12.75160156 4.01195312 13.36648438 4 14 C1.8553857 11.8553857 1.55435397 10.98260002 0.875 8.125 C0.70742188 7.44695313 0.53984375 6.76890625 0.3671875 6.0703125 C0 4 0 4 0 0 Z " fill="#442B2C" transform="translate(760,536)"/>
<path d="M0 0 C3.00775285 0.81459973 4.11821903 1.4080021 6 3.8125 C5.67 4.8025 5.34 5.7925 5 6.8125 C4.67 5.8225 4.34 4.8325 4 3.8125 C0.7 3.1525 -2.6 2.4925 -6 1.8125 C-3 -0.1875 -3 -0.1875 0 0 Z " fill="#4C3933" transform="translate(537,227.1875)"/>
<path d="M0 0 C0.66 0.66 1.32 1.32 2 2 C2.99 2 3.98 2 5 2 C5.33 3.32 5.66 4.64 6 6 C5.01 6.495 5.01 6.495 4 7 C4 6.01 4 5.02 4 4 C2.35 4.66 0.7 5.32 -1 6 C-1.042721 4.33388095 -1.04063832 2.66617115 -1 1 C-0.67 0.67 -0.34 0.34 0 0 Z " fill="#FBE3C2" transform="translate(297,459)"/>
<path d="M0 0 C0 3 0 3 -1.96875 5.04296875 C-2.8040625 5.75066406 -3.639375 6.45835937 -4.5 7.1875 C-5.3353125 7.90292969 -6.170625 8.61835937 -7.03125 9.35546875 C-7.6809375 9.89816406 -8.330625 10.44085937 -9 11 C-9 8 -9 8 -7.03125 5.95703125 C-6.1959375 5.24933594 -5.360625 4.54164063 -4.5 3.8125 C-3.6646875 3.09707031 -2.829375 2.38164063 -1.96875 1.64453125 C-1.3190625 1.10183594 -0.669375 0.55914063 0 0 Z " fill="#6E5246" transform="translate(557,659)"/>
<path d="M0 0 C4.455 0.99 4.455 0.99 9 2 C8.67 2.66 8.34 3.32 8 4 C5.0625 4.75 5.0625 4.75 2 5 C1.34 4.34 0.68 3.68 0 3 C0 2.01 0 1.02 0 0 Z " fill="#FCCEA2" transform="translate(357,392)"/>
<path d="M0 0 C0.99 0.33 1.98 0.66 3 1 C0.36 3.97 -2.28 6.94 -5 10 C-5.33 9.34 -5.66 8.68 -6 8 C-4.02 5.36 -2.04 2.72 0 0 Z " fill="#523C36" transform="translate(483,245)"/>
<path d="M0 0 C0.99 0.33 1.98 0.66 3 1 C1.73299277 1.9841125 0.4612381 2.96211497 -0.8125 3.9375 C-1.87404297 4.75541016 -1.87404297 4.75541016 -2.95703125 5.58984375 C-5 7 -5 7 -8 8 C-6.49860488 3.79609368 -3.82724957 2.10889262 0 0 Z " fill="#4B3733" transform="translate(494,236)"/>
<path d="M0 0 C3.33333333 3.33333333 6.66666667 6.66666667 10 10 C6.7451198 9.41978222 5.06347592 8.47352859 2.75 6.125 C2.22921875 5.61195313 1.7084375 5.09890625 1.171875 4.5703125 C0 3 0 3 0 0 Z " fill="#473530" transform="translate(510,743)"/>
<path d="M0 0 C4.48525648 0.656379 8.66914029 1.70074209 13 3 C13 3.33 13 3.66 13 4 C9.37 4 5.74 4 2 4 C2 3.34 2 2.68 2 2 C1.34 1.34 0.68 0.68 0 0 Z " fill="#F2A272" transform="translate(359,743)"/>
<path d="M0 0 C0.66 0.33 1.32 0.66 2 1 C1.3203125 2.921875 1.3203125 2.921875 0 5 C-2.3828125 5.828125 -2.3828125 5.828125 -5.125 6.25 C-6.03507812 6.39953125 -6.94515625 6.5490625 -7.8828125 6.703125 C-8.58148438 6.80109375 -9.28015625 6.8990625 -10 7 C-6.74799207 4.53271572 -3.40873516 2.24666636 0 0 Z " fill="#6D5247" transform="translate(518,272)"/>
<path d="M0 0 C0.99 1.32 1.98 2.64 3 4 C3.66 3.34 4.32 2.68 5 2 C5 3.32 5 4.64 5 6 C4.01 6.495 4.01 6.495 3 7 C2.34444881 9.52733235 2.34444881 9.52733235 2 12 C1.67 12 1.34 12 1 12 C0.67 8.04 0.34 4.08 0 0 Z " fill="#F7CEA3" transform="translate(285,505)"/>
<path d="M0 0 C2.4294516 3.6441774 2.16179575 5.71241272 2 10 C1.34 9.67 0.68 9.34 0 9 C-0.44921875 7.1875 -0.44921875 7.1875 -0.6875 5 C-0.77386719 4.278125 -0.86023438 3.55625 -0.94921875 2.8125 C-0.96597656 2.214375 -0.98273438 1.61625 -1 1 C-0.67 0.67 -0.34 0.34 0 0 Z " fill="#523C36" transform="translate(277,612)"/>
<path d="M0 0 C2.96404505 2.80804268 5.44499019 5.18315774 7 9 C5.68 9 4.36 9 3 9 C2.01 6.03 1.02 3.06 0 0 Z " fill="#F6B27E" transform="translate(293,703)"/>
<path d="M0 0 C0.99 0.33 1.98 0.66 3 1 C2.01 3.97 1.02 6.94 0 10 C-1.25733598 6.22799206 -1.03366148 3.74702285 0 0 Z " fill="#6F5247" transform="translate(293,432)"/>
<path d="M0 0 C2.31 0.33 4.62 0.66 7 1 C5 3 5 3 1.875 3.125 C0.451875 3.063125 0.451875 3.063125 -1 3 C-0.67 2.01 -0.34 1.02 0 0 Z " fill="#FCD2A6" transform="translate(370,371)"/>
<path d="M0 0 C0.66 0.33 1.32 0.66 2 1 C-0.64 3.64 -3.28 6.28 -6 9 C-6.33 8.01 -6.66 7.02 -7 6 C-4.69 4.02 -2.38 2.04 0 0 Z " fill="#44302E" transform="translate(355,346)"/>
<path d="M0 0 C0.33 0.99 0.66 1.98 1 3 C-1.97 5.475 -1.97 5.475 -5 8 C-5.66 7.67 -6.32 7.34 -7 7 C-4.69 4.69 -2.38 2.38 0 0 Z " fill="#3C2D2E" transform="translate(658,694)"/>
<path d="M0 0 C0 0.66 0 1.32 0 2 C-4.15267176 5.11450382 -4.15267176 5.11450382 -7.3125 4.6875 C-7.869375 4.460625 -8.42625 4.23375 -9 4 C-2.25 0 -2.25 0 0 0 Z " fill="#584039" transform="translate(393,320)"/>
<path d="M0 0 C2.97 0 5.94 0 9 0 C9 0.33 9 0.66 9 1 C6.03 1 3.06 1 0 1 C0 0.67 0 0.34 0 0 Z " fill="#8C6552" transform="translate(292,735)"/>
<path d="M0 0 C0.99 1.32 1.98 2.64 3 4 C2.01 4.495 2.01 4.495 1 5 C0.67 3.35 0.34 1.7 0 0 Z " fill="#926958" transform="translate(505,739)"/>
<path d="M0 0 C0.99 0.99 1.98 1.98 3 3 C2.01 3 1.02 3 0 3 C0 2.01 0 1.02 0 0 Z " fill="#926B58" transform="translate(512,749)"/>
<path d="M0 0 C0.66 0 1.32 0 2 0 C1.67 0.99 1.34 1.98 1 3 C0.34 2.67 -0.32 2.34 -1 2 C-0.67 1.34 -0.34 0.68 0 0 Z " fill="#906C59" transform="translate(433,276)"/>
<path d="M0 0 C0.33 1.32 0.66 2.64 1 4 C0.34 3.34 -0.32 2.68 -1 2 C-0.67 1.34 -0.34 0.68 0 0 Z " fill="#946C5B" transform="translate(274,612)"/>
<path d="M0 0 C0.99 0 1.98 0 3 0 C2.67 0.66 2.34 1.32 2 2 C1.34 1.34 0.68 0.68 0 0 Z " fill="#8B6452" transform="translate(339,758)"/>
<path d="M0 0 C0.66 0.33 1.32 0.66 2 1 C1.01 1 0.02 1 -1 1 C-0.67 0.67 -0.34 0.34 0 0 Z " fill="#906755" transform="translate(604,749)"/>
<path d="M0 0 C4 1 4 1 4 1 Z " fill="#8B6655" transform="translate(266,735)"/>
<path d="M0 0 C4 1 4 1 4 1 Z " fill="#8E6758" transform="translate(237,735)"/>
<path d="M0 0 C4 1 4 1 4 1 Z " fill="#886457" transform="translate(197,735)"/>
<path d="M0 0 C4 1 4 1 4 1 Z " fill="#876556" transform="translate(192,735)"/>
<path d="M0 0 C1 4 1 4 1 4 Z " fill="#936E5C" transform="translate(268,564)"/>
<path d="M0 0 C1 4 1 4 1 4 Z " fill="#946F5F" transform="translate(268,529)"/>
<path d="M0 0 C4 1 4 1 4 1 Z " fill="#926E5D" transform="translate(514,225)"/>
<path d="M0 0 C0.66 0 1.32 0 2 0 C1.67 0.66 1.34 1.32 1 2 C0.67 1.34 0.34 0.68 0 0 Z " fill="#8E6857" transform="translate(542,763)"/>
<path d="M0 0 C3 1 3 1 3 1 Z " fill="#8D6553" transform="translate(343,759)"/>
<path d="M0 0 C3 1 3 1 3 1 Z " fill="#8C6654" transform="translate(336,757)"/>
<path d="" fill="#886554" transform="translate(0,0)"/>
<path d="M0 0 C3 1 3 1 3 1 Z " fill="#896252" transform="translate(287,735)"/>
<path d="M0 0 C3 1 3 1 3 1 Z " fill="#8D6454" transform="translate(275,735)"/>
<path d="M0 0 C3 1 3 1 3 1 Z " fill="#8A6557" transform="translate(231,735)"/>
<path d="M0 0 C3 1 3 1 3 1 Z " fill="#8B6658" transform="translate(208,735)"/>
<path d="M0 0 C0.66 0.66 1.32 1.32 2 2 C1.34 2 0.68 2 0 2 C0 1.34 0 0.68 0 0 Z " fill="#806054" transform="translate(179,734)"/>
<path d="M0 0 C0.66 0 1.32 0 2 0 C1.67 0.66 1.34 1.32 1 2 C0.67 1.34 0.34 0.68 0 0 Z " fill="#826152" transform="translate(182,734)"/>
<path d="M0 0 C3 1 3 1 3 1 Z " fill="#906655" transform="translate(718,731)"/>
<path d="M0 0 C3 1 3 1 3 1 Z " fill="#916756" transform="translate(702,731)"/>
<path d="" fill="#976E5B" transform="translate(0,0)"/>
<path d="" fill="#936E5D" transform="translate(0,0)"/>
<path d="" fill="#926D5B" transform="translate(0,0)"/>
<path d="M0 0 C0.33 0.66 0.66 1.32 1 2 C0.34 1.67 -0.32 1.34 -1 1 C-0.67 0.67 -0.34 0.34 0 0 Z " fill="#906A5B" transform="translate(275,618)"/>
<path d="" fill="#95705F" transform="translate(0,0)"/>
<path d="M0 0 C3 1 3 1 3 1 Z " fill="#906958" transform="translate(708,401)"/>
<path d="M0 0 C3 1 3 1 3 1 Z " fill="#906956" transform="translate(644,336)"/>
<path d="M0 0 C3 1 3 1 3 1 Z " fill="#906A57" transform="translate(464,292)"/>
<path d="M0 0 C3 1 3 1 3 1 Z " fill="#916954" transform="translate(493,287)"/>
<path d="M0 0 C2 1 2 1 2 1 Z " fill="#906856" transform="translate(558,763)"/>
<path d="M0 0 C2 1 2 1 2 1 Z " fill="#916856" transform="translate(525,759)"/>
<path d="M0 0 C2 1 2 1 2 1 Z " fill="#896556" transform="translate(331,755)"/>
<path d="M0 0 C2 1 2 1 2 1 Z " fill="#886353" transform="translate(329,754)"/>
<path d="M0 0 C2 1 2 1 2 1 Z " fill="#8C6653" transform="translate(600,751)"/>
<path d="M0 0 C2 1 2 1 2 1 Z " fill="#8C6858" transform="translate(402,749)"/>
<path d="M0 0 C2 1 2 1 2 1 Z " fill="#896355" transform="translate(315,747)"/>
<path d="M0 0 C2 1 2 1 2 1 Z " fill="#8D6555" transform="translate(272,735)"/>
<path d="M0 0 C2 1 2 1 2 1 Z " fill="#8D6656" transform="translate(263,735)"/>
<path d="M0 0 C2 1 2 1 2 1 Z " fill="#8F6858" transform="translate(244,735)"/>
<path d="M0 0 C2 1 2 1 2 1 Z " fill="#8D6758" transform="translate(220,735)"/>
<path d="M0 0 C2 1 2 1 2 1 Z " fill="#8D6858" transform="translate(215,735)"/>
<path d="M0 0 C2 1 2 1 2 1 Z " fill="#896556" transform="translate(204,735)"/>
<path d="M0 0 C2 1 2 1 2 1 Z " fill="#956C5B" transform="translate(475,734)"/>
<path d="M0 0 C2 1 2 1 2 1 Z " fill="#826053" transform="translate(176,733)"/>
<path d="M0 0 C2 1 2 1 2 1 Z " fill="#906754" transform="translate(686,731)"/>
<path d="M0 0 C2 1 2 1 2 1 Z " fill="#916855" transform="translate(680,731)"/>
<path d="M0 0 C2 1 2 1 2 1 Z " fill="#926856" transform="translate(670,731)"/>
<path d="M0 0 C2 1 2 1 2 1 Z " fill="#906755" transform="translate(646,731)"/>
<path d="M0 0 C2 1 2 1 2 1 Z " fill="#866556" transform="translate(845,712)"/>
<path d="" fill="#966C5B" transform="translate(0,0)"/>
<path d="" fill="#986D58" transform="translate(0,0)"/>
<path d="" fill="#916C5B" transform="translate(0,0)"/>
<path d="" fill="#906A5A" transform="translate(0,0)"/>
<path d="" fill="#95705F" transform="translate(0,0)"/>
<path d="" fill="#956F5F" transform="translate(0,0)"/>
<path d="" fill="#8F6C5B" transform="translate(0,0)"/>
<path d="" fill="#926C5D" transform="translate(0,0)"/>
<path d="" fill="#916A5A" transform="translate(0,0)"/>
<path d="" fill="#936D5E" transform="translate(0,0)"/>
<path d="" fill="#936E5C" transform="translate(0,0)"/>
<path d="" fill="#946F5E" transform="translate(0,0)"/>
<path d="" fill="#966E5C" transform="translate(0,0)"/>
<path d="" fill="#946B59" transform="translate(0,0)"/>
<path d="" fill="#926C5C" transform="translate(0,0)"/>
<path d="" fill="#916D5C" transform="translate(0,0)"/>
<path d="" fill="#90695A" transform="translate(0,0)"/>
<path d="" fill="#956E5D" transform="translate(0,0)"/>
<path d="" fill="#8F6B58" transform="translate(0,0)"/>
<path d="" fill="#926B5B" transform="translate(0,0)"/>
<path d="" fill="#8F6B5A" transform="translate(0,0)"/>
<path d="M0 0 C2 1 2 1 2 1 Z " fill="#976E5B" transform="translate(604,313)"/>
<path d="M0 0 C2 1 2 1 2 1 Z " fill="#966E5B" transform="translate(602,312)"/>
<path d="M0 0 C2 1 2 1 2 1 Z " fill="#966D5B" transform="translate(420,304)"/>
<path d="M0 0 C2 1 2 1 2 1 Z " fill="#956F5C" transform="translate(432,298)"/>
<path d="M0 0 C2 1 2 1 2 1 Z " fill="#956C5B" transform="translate(556,296)"/>
<path d="M0 0 C2 1 2 1 2 1 Z " fill="#966D58" transform="translate(445,296)"/>
<path d="M0 0 C2 1 2 1 2 1 Z " fill="#906856" transform="translate(450,285)"/>
<path d="" fill="#926F5C" transform="translate(0,0)"/>
<path d="M0 0 C2 1 2 1 2 1 Z " fill="#926F5B" transform="translate(460,236)"/>
<path d="M0 0 C2 1 2 1 2 1 Z " fill="#906D5B" transform="translate(493,234)"/>
<path d="M0 0 C2 1 2 1 2 1 Z " fill="#906D5C" transform="translate(442,227)"/>
<path d="M0 0 C2 1 2 1 2 1 Z " fill="#8F6C5A" transform="translate(434,225)"/>
<path d="" fill="#504643" transform="translate(0,0)"/>
<path d="" fill="#4F4642" transform="translate(0,0)"/>
<path d="" fill="#4C4643" transform="translate(0,0)"/>
<path d="" fill="#4D4946" transform="translate(0,0)"/>
<path d="" fill="#4B4742" transform="translate(0,0)"/>
<path d="" fill="#534942" transform="translate(0,0)"/>
<path d="" fill="#514944" transform="translate(0,0)"/>
<path d="" fill="#4F4843" transform="translate(0,0)"/>
<path d="" fill="#514844" transform="translate(0,0)"/>
<path d="" fill="#4F4C48" transform="translate(0,0)"/>
<path d="" fill="#6A564E" transform="translate(0,0)"/>
<path d="" fill="#6D594D" transform="translate(0,0)"/>
<path d="" fill="#715B4F" transform="translate(0,0)"/>
<path d="" fill="#585250" transform="translate(0,0)"/>
<path d="" fill="#956C5A" transform="translate(0,0)"/>
<path d="" fill="#8F6857" transform="translate(0,0)"/>
<path d="" fill="#8D6957" transform="translate(0,0)"/>
<path d="" fill="#8F6857" transform="translate(0,0)"/>
<path d="" fill="#906858" transform="translate(0,0)"/>
<path d="" fill="#906757" transform="translate(0,0)"/>
<path d="" fill="#8D6655" transform="translate(0,0)"/>
<path d="" fill="#8A6255" transform="translate(0,0)"/>
<path d="" fill="#8E6655" transform="translate(0,0)"/>
<path d="" fill="#886355" transform="translate(0,0)"/>
<path d="" fill="#8D6657" transform="translate(0,0)"/>
<path d="" fill="#8C6858" transform="translate(0,0)"/>
<path d="" fill="#886454" transform="translate(0,0)"/>
<path d="" fill="#8B6555" transform="translate(0,0)"/>
<path d="" fill="#8D6656" transform="translate(0,0)"/>
<path d="" fill="#916854" transform="translate(0,0)"/>
<path d="" fill="#886252" transform="translate(0,0)"/>
<path d="" fill="#896354" transform="translate(0,0)"/>
<path d="" fill="#8D6555" transform="translate(0,0)"/>
<path d="" fill="#8B6457" transform="translate(0,0)"/>
<path d="" fill="#896455" transform="translate(0,0)"/>
<path d="" fill="#8D6956" transform="translate(0,0)"/>
<path d="" fill="#8B6454" transform="translate(0,0)"/>
<path d="" fill="#926956" transform="translate(0,0)"/>
<path d="" fill="#926854" transform="translate(0,0)"/>
<path d="" fill="#8E6958" transform="translate(0,0)"/>
<path d="" fill="#8A6757" transform="translate(0,0)"/>
<path d="" fill="#8A6557" transform="translate(0,0)"/>
<path d="" fill="#876556" transform="translate(0,0)"/>
<path d="" fill="#816153" transform="translate(0,0)"/>
<path d="" fill="#966956" transform="translate(0,0)"/>
<path d="" fill="#966B5B" transform="translate(0,0)"/>
<path d="" fill="#966B5B" transform="translate(0,0)"/>
<path d="" fill="#956C5C" transform="translate(0,0)"/>
<path d="" fill="#966D5B" transform="translate(0,0)"/>
<path d="" fill="#986E5C" transform="translate(0,0)"/>
<path d="" fill="#9A6F5C" transform="translate(0,0)"/>
<path d="" fill="#996F5C" transform="translate(0,0)"/>
<path d="" fill="#976C5A" transform="translate(0,0)"/>
<path d="" fill="#976E5B" transform="translate(0,0)"/>
<path d="" fill="#976C5B" transform="translate(0,0)"/>
<path d="" fill="#956C5A" transform="translate(0,0)"/>
<path d="" fill="#966C59" transform="translate(0,0)"/>
<path d="" fill="#946C5B" transform="translate(0,0)"/>
<path d="" fill="#9B6F5C" transform="translate(0,0)"/>
<path d="" fill="#9A6F5A" transform="translate(0,0)"/>
<path d="" fill="#9C6E5B" transform="translate(0,0)"/>
<path d="" fill="#8F6754" transform="translate(0,0)"/>
<path d="" fill="#906754" transform="translate(0,0)"/>
<path d="" fill="#926855" transform="translate(0,0)"/>
<path d="" fill="#906754" transform="translate(0,0)"/>
<path d="" fill="#916855" transform="translate(0,0)"/>
<path d="" fill="#906754" transform="translate(0,0)"/>
<path d="" fill="#916855" transform="translate(0,0)"/>
<path d="" fill="#916858" transform="translate(0,0)"/>
<path d="" fill="#936856" transform="translate(0,0)"/>
<path d="" fill="#926A55" transform="translate(0,0)"/>
<path d="" fill="#926A56" transform="translate(0,0)"/>
<path d="" fill="#946957" transform="translate(0,0)"/>
<path d="" fill="#916754" transform="translate(0,0)"/>
<path d="" fill="#8C6757" transform="translate(0,0)"/>
<path d="" fill="#8C6B5C" transform="translate(0,0)"/>
<path d="" fill="#8C6A5C" transform="translate(0,0)"/>
<path d="" fill="#846256" transform="translate(0,0)"/>
<path d="" fill="#956D5C" transform="translate(0,0)"/>
<path d="" fill="#976C59" transform="translate(0,0)"/>
<path d="" fill="#8E6959" transform="translate(0,0)"/>
<path d="" fill="#926B5C" transform="translate(0,0)"/>
<path d="" fill="#946B5B" transform="translate(0,0)"/>
<path d="" fill="#946957" transform="translate(0,0)"/>
<path d="" fill="#866758" transform="translate(0,0)"/>
<path d="" fill="#8C6655" transform="translate(0,0)"/>
<path d="" fill="#8C6659" transform="translate(0,0)"/>
<path d="" fill="#8D6959" transform="translate(0,0)"/>
<path d="" fill="#906959" transform="translate(0,0)"/>
<path d="" fill="#916B59" transform="translate(0,0)"/>
<path d="" fill="#906A5B" transform="translate(0,0)"/>
<path d="" fill="#926B59" transform="translate(0,0)"/>
<path d="" fill="#976D5A" transform="translate(0,0)"/>
<path d="" fill="#926B5D" transform="translate(0,0)"/>
<path d="" fill="#946C5E" transform="translate(0,0)"/>
<path d="" fill="#8F6B5B" transform="translate(0,0)"/>
<path d="" fill="#8D695C" transform="translate(0,0)"/>
<path d="" fill="#956C5A" transform="translate(0,0)"/>
<path d="" fill="#926E5D" transform="translate(0,0)"/>
<path d="" fill="#946D5B" transform="translate(0,0)"/>
<path d="" fill="#8D685A" transform="translate(0,0)"/>
<path d="" fill="#976C5A" transform="translate(0,0)"/>
<path d="" fill="#956D5D" transform="translate(0,0)"/>
<path d="" fill="#605754" transform="translate(0,0)"/>
<path d="" fill="#8E695B" transform="translate(0,0)"/>
<path d="" fill="#926B5B" transform="translate(0,0)"/>
<path d="" fill="#966E5D" transform="translate(0,0)"/>
<path d="" fill="#956A5B" transform="translate(0,0)"/>
<path d="" fill="#8F6B5F" transform="translate(0,0)"/>
<path d="" fill="#926C5E" transform="translate(0,0)"/>
<path d="" fill="#97705C" transform="translate(0,0)"/>
<path d="" fill="#99715F" transform="translate(0,0)"/>
<path d="" fill="#976F5F" transform="translate(0,0)"/>
<path d="" fill="#966F5E" transform="translate(0,0)"/>
<path d="" fill="#996F5D" transform="translate(0,0)"/>
<path d="" fill="#96705E" transform="translate(0,0)"/>
<path d="" fill="#9A7260" transform="translate(0,0)"/>
<path d="" fill="#997260" transform="translate(0,0)"/>
<path d="" fill="#99725E" transform="translate(0,0)"/>
<path d="" fill="#99715F" transform="translate(0,0)"/>
<path d="" fill="#986D5C" transform="translate(0,0)"/>
<path d="" fill="#977260" transform="translate(0,0)"/>
<path d="" fill="#976E5D" transform="translate(0,0)"/>
<path d="" fill="#977060" transform="translate(0,0)"/>
<path d="" fill="#946A59" transform="translate(0,0)"/>
<path d="" fill="#976E5C" transform="translate(0,0)"/>
<path d="" fill="#966C5C" transform="translate(0,0)"/>
<path d="" fill="#946F61" transform="translate(0,0)"/>
<path d="" fill="#936D59" transform="translate(0,0)"/>
<path d="" fill="#906A5A" transform="translate(0,0)"/>
<path d="" fill="#95705F" transform="translate(0,0)"/>
<path d="" fill="#956F5F" transform="translate(0,0)"/>
<path d="" fill="#906E61" transform="translate(0,0)"/>
<path d="" fill="#926A58" transform="translate(0,0)"/>
<path d="" fill="#906958" transform="translate(0,0)"/>
<path d="" fill="#956B59" transform="translate(0,0)"/>
<path d="" fill="#906A59" transform="translate(0,0)"/>
<path d="" fill="#946D5B" transform="translate(0,0)"/>
<path d="" fill="#906959" transform="translate(0,0)"/>
<path d="" fill="#986E5E" transform="translate(0,0)"/>
<path d="" fill="#906A56" transform="translate(0,0)"/>
<path d="" fill="#926E5F" transform="translate(0,0)"/>
<path d="" fill="#916857" transform="translate(0,0)"/>
<path d="" fill="#906E5F" transform="translate(0,0)"/>
<path d="" fill="#916E5F" transform="translate(0,0)"/>
<path d="" fill="#936A5A" transform="translate(0,0)"/>
<path d="" fill="#916B58" transform="translate(0,0)"/>
<path d="" fill="#926E5F" transform="translate(0,0)"/>
<path d="" fill="#5D5551" transform="translate(0,0)"/>
<path d="" fill="#916B58" transform="translate(0,0)"/>
<path d="" fill="#986E5C" transform="translate(0,0)"/>
<path d="" fill="#916E5B" transform="translate(0,0)"/>
<path d="" fill="#926D5E" transform="translate(0,0)"/>
<path d="" fill="#8E6759" transform="translate(0,0)"/>
<path d="" fill="#926C5B" transform="translate(0,0)"/>
<path d="" fill="#926E5E" transform="translate(0,0)"/>
<path d="" fill="#916D5D" transform="translate(0,0)"/>
<path d="" fill="#926A57" transform="translate(0,0)"/>
<path d="" fill="#8E6B5B" transform="translate(0,0)"/>
<path d="" fill="#8F6D5E" transform="translate(0,0)"/>
<path d="" fill="#906D5D" transform="translate(0,0)"/>
<path d="" fill="#8D6757" transform="translate(0,0)"/>
<path d="" fill="#8D6757" transform="translate(0,0)"/>
<path d="" fill="#906D5B" transform="translate(0,0)"/>
<path d="" fill="#936C5B" transform="translate(0,0)"/>
<path d="" fill="#8D6756" transform="translate(0,0)"/>
<path d="" fill="#966C5B" transform="translate(0,0)"/>
<path d="" fill="#916959" transform="translate(0,0)"/>
<path d="" fill="#8F6B5D" transform="translate(0,0)"/>
<path d="" fill="#916B5A" transform="translate(0,0)"/>
<path d="" fill="#926F5C" transform="translate(0,0)"/>
<path d="" fill="#926C5C" transform="translate(0,0)"/>
<path d="" fill="#675953" transform="translate(0,0)"/>
<path d="" fill="#8D6958" transform="translate(0,0)"/>
<path d="" fill="#99705C" transform="translate(0,0)"/>
<path d="" fill="#8E6755" transform="translate(0,0)"/>
<path d="" fill="#956E5C" transform="translate(0,0)"/>
<path d="" fill="#936959" transform="translate(0,0)"/>
<path d="" fill="#555452" transform="translate(0,0)"/>
<path d="" fill="#5A5452" transform="translate(0,0)"/>
<path d="" fill="#8E6957" transform="translate(0,0)"/>
<path d="" fill="#936E5F" transform="translate(0,0)"/>
<path d="" fill="#946B57" transform="translate(0,0)"/>
<path d="" fill="#936E5A" transform="translate(0,0)"/>
<path d="" fill="#936D5C" transform="translate(0,0)"/>
<path d="" fill="#956D5B" transform="translate(0,0)"/>
<path d="" fill="#73625A" transform="translate(0,0)"/>
<path d="" fill="#916F5D" transform="translate(0,0)"/>
<path d="" fill="#94715F" transform="translate(0,0)"/>
<path d="" fill="#936A58" transform="translate(0,0)"/>
<path d="" fill="#916A59" transform="translate(0,0)"/>
<path d="" fill="#966E5E" transform="translate(0,0)"/>
<path d="" fill="#976D5A" transform="translate(0,0)"/>
<path d="" fill="#97715F" transform="translate(0,0)"/>
<path d="" fill="#936B59" transform="translate(0,0)"/>
<path d="" fill="#966E5A" transform="translate(0,0)"/>
<path d="" fill="#966B58" transform="translate(0,0)"/>
<path d="" fill="#956E60" transform="translate(0,0)"/>
<path d="" fill="#98715F" transform="translate(0,0)"/>
<path d="" fill="#956E5E" transform="translate(0,0)"/>
<path d="" fill="#9A725B" transform="translate(0,0)"/>
<path d="" fill="#95705D" transform="translate(0,0)"/>
<path d="" fill="#946C5C" transform="translate(0,0)"/>
<path d="" fill="#98705D" transform="translate(0,0)"/>
<path d="" fill="#976C5C" transform="translate(0,0)"/>
<path d="" fill="#946E5C" transform="translate(0,0)"/>
<path d="" fill="#956D5C" transform="translate(0,0)"/>
<path d="" fill="#926C58" transform="translate(0,0)"/>
<path d="" fill="#956F59" transform="translate(0,0)"/>
<path d="" fill="#926B56" transform="translate(0,0)"/>
<path d="" fill="#906955" transform="translate(0,0)"/>
<path d="" fill="#8F6755" transform="translate(0,0)"/>
<path d="" fill="#916956" transform="translate(0,0)"/>
<path d="" fill="#8F6B57" transform="translate(0,0)"/>
<path d="" fill="#8C6A56" transform="translate(0,0)"/>
<path d="" fill="#926C54" transform="translate(0,0)"/>
<path d="" fill="#916E5B" transform="translate(0,0)"/>
<path d="" fill="#946F5D" transform="translate(0,0)"/>
<path d="" fill="#926F5B" transform="translate(0,0)"/>
<path d="" fill="#937160" transform="translate(0,0)"/>
<path d="" fill="#936B5A" transform="translate(0,0)"/>
<path d="" fill="#96705D" transform="translate(0,0)"/>
<path d="" fill="#92715B" transform="translate(0,0)"/>
<path d="" fill="#926D5A" transform="translate(0,0)"/>
<path d="" fill="#916D5A" transform="translate(0,0)"/>
<path d="" fill="#595653" transform="translate(0,0)"/>
<path d="" fill="#93705C" transform="translate(0,0)"/>
<path d="" fill="#8E6C5C" transform="translate(0,0)"/>
<path d="" fill="#92705B" transform="translate(0,0)"/>
<path d="" fill="#936D5A" transform="translate(0,0)"/>
<path d="" fill="#906E5B" transform="translate(0,0)"/>
<path d="" fill="#946E5A" transform="translate(0,0)"/>
<path d="" fill="#8D6F5B" transform="translate(0,0)"/>
<path d="" fill="#8F6D5A" transform="translate(0,0)"/>
<path d="" fill="#916E5B" transform="translate(0,0)"/>
<path d="" fill="#936D5A" transform="translate(0,0)"/>
<path d="" fill="#8E6B5C" transform="translate(0,0)"/>
<path d="" fill="#8E6D5D" transform="translate(0,0)"/>
<path d="" fill="#8E6B5A" transform="translate(0,0)"/>
<path d="" fill="#8D6B5A" transform="translate(0,0)"/>
<path d="" fill="#8F6E5D" transform="translate(0,0)"/>
<path d="" fill="#8F6E5C" transform="translate(0,0)"/>
<path d="" fill="#906F5D" transform="translate(0,0)"/>
<path d="" fill="#906E5C" transform="translate(0,0)"/>
<path d="" fill="#5D5852" transform="translate(0,0)"/>
<path d="" fill="#595554" transform="translate(0,0)"/>
<path d="" fill="#545453" transform="translate(0,0)"/>
<path d="" fill="#565653" transform="translate(0,0)"/>
<path d="" fill="#595754" transform="translate(0,0)"/>
<path d="" fill="#5D5956" transform="translate(0,0)"/>
</svg>
